# Blender v2.79 (sub 0) OBJ File: ''
# www.blender.org
mtllib ex_common_plat_cent.mtl
o nifid_21-matrix_Tri_Ex_common_plat_Cent_4-lib
v 1.694446 0.029505 -3.252276
v 0.427604 0.272180 -3.285908
v 1.694446 0.272180 -3.252277
v 0.427604 0.029505 -3.285908
v 1.694446 0.029502 3.217637
v 0.363545 0.272177 3.287594
v 0.363545 0.029502 3.287594
v 1.694446 0.272177 3.217637
v -0.359176 0.045388 -2.709793
v -0.359176 0.288063 -2.709795
v 0.293836 0.288063 -2.646524
v 0.293836 0.045388 -2.646524
v -0.389093 0.045385 2.647983
v 0.263916 0.045385 2.578733
v 0.263916 0.288060 2.578733
v -0.389093 0.288060 2.647983
v -3.104276 0.004912 -3.252277
v -3.104276 0.247587 -3.252277
v -1.805569 0.247587 -3.285909
v -1.805569 0.004912 -3.285908
v -3.104276 0.004909 3.217637
v -1.739894 0.004909 3.221830
v -1.739894 0.247585 3.221830
v -3.104276 0.247585 3.217637
v -1.672734 0.026066 -3.337130
v -1.672734 0.268742 -3.337130
v -0.451605 0.268742 -3.285909
v -0.451605 0.026066 -3.285909
v -1.672734 0.026064 3.238062
v -0.451605 0.026064 3.221832
v -0.451605 0.268739 3.221832
v -1.672734 0.268739 3.238062
v 1.834241 0.026066 -3.337130
v 1.834241 0.268742 -3.337130
v 3.055370 0.268742 -3.285909
v 3.055370 0.026066 -3.285909
v 1.834241 0.026064 3.238062
v 3.055370 0.026064 3.221832
v 3.055370 0.268739 3.221832
v 1.834241 0.268739 3.238062
vt 0.073228 0.835752
vt 0.926773 0.148329
vt 0.472782 1.039340
vt 0.527218 -0.055255
vt 0.453753 0.999544
vt 0.806756 0.000543
vt 0.453753 0.000543
vt 0.806756 0.999544
vt 0.253026 0.018823
vt 0.692197 -0.015740
vt 0.770656 0.981177
vt 0.331486 1.015740
vt 0.153535 0.920800
vt 0.551885 0.004656
vt 0.846465 0.132743
vt 0.448115 1.048890
vt 0.411176 -0.024746
vt 0.896735 -0.071500
vt 0.992581 0.923896
vt 0.507022 0.970650
vt 0.880996 0.915732
vt 0.490655 -0.003853
vt 0.787295 -0.129769
vt 1.177640 0.789816
vt 0.009558 0.574669
vt 0.009558 0.942316
vt 1.009560 0.942316
vt 1.009560 0.574669
vt 0.985124 0.241836
vt -0.042425 0.389498
vt 0.014876 0.758165
vt 1.042430 0.610503
vt 0.009558 0.574669
vt 0.009558 0.942316
vt 1.009560 0.942316
vt 1.009560 0.574669
vt 0.985124 0.241836
vt -0.042425 0.389498
vt 0.014876 0.758165
vt 1.042430 0.610503
vn 0.0265 0.0000 -0.9996
vn 0.0525 0.0000 0.9986
vn 0.0964 0.0000 -0.9953
vn 0.1054 0.0000 0.9944
vn -0.0259 0.0000 -0.9997
vn -0.0031 0.0000 1.0000
vn 0.0419 0.0000 -0.9991
vn 0.0133 0.0000 0.9999
usemtl Material_Material_#14
s 1
f 1/1/1 2/2/1 3/3/1
f 2/2/1 1/1/1 4/4/1
f 5/5/2 6/6/2 7/7/2
f 6/6/2 5/5/2 8/8/2
f 9/9/3 10/10/3 11/11/3
f 11/11/3 12/12/3 9/9/3
f 13/13/4 14/14/4 15/15/4
f 15/15/4 16/16/4 13/13/4
f 17/17/5 18/18/5 19/19/5
f 19/19/5 20/20/5 17/17/5
f 21/21/6 22/22/6 23/23/6
f 23/23/6 24/24/6 21/21/6
f 25/25/7 26/26/7 27/27/7
f 27/27/7 28/28/7 25/25/7
f 29/29/8 30/30/8 31/31/8
f 31/31/8 32/32/8 29/29/8
f 33/33/7 34/34/7 35/35/7
f 35/35/7 36/36/7 33/33/7
f 37/37/8 38/38/8 39/39/8
f 39/39/8 40/40/8 37/37/8
o nifid_16-matrix_Tri_Ex_common_plat_Cent_3-lib
v 1.694446 0.029505 -3.252276
v 0.363545 0.029502 3.287594
v 0.427604 0.029505 -3.285908
v 1.694446 0.029502 3.217637
v 0.427604 0.029505 -3.285908
v 0.363545 0.272177 3.287594
v 0.427604 0.272180 -3.285908
v 0.363545 0.029502 3.287594
v 0.427604 0.272180 -3.285908
v 1.694446 0.272177 3.217637
v 1.694446 0.272180 -3.252277
v 0.363545 0.272177 3.287594
v 1.694446 0.029502 3.217637
v 1.694446 0.029505 -3.252276
v -0.359176 0.045388 -2.709793
v 0.293836 0.045388 -2.646524
v 0.263916 0.045385 2.578733
v -0.389093 0.045385 2.647983
v 0.293836 0.045388 -2.646524
v 0.293836 0.288063 -2.646524
v 0.263916 0.288060 2.578733
v 0.263916 0.045385 2.578733
v 0.293836 0.288063 -2.646524
v -0.359176 0.288063 -2.709795
v -0.389093 0.288060 2.647983
v 0.263916 0.288060 2.578733
v -0.359176 0.288063 -2.709795
v -0.359176 0.045388 -2.709793
v -0.389093 0.045385 2.647983
v -0.389093 0.288060 2.647983
v -3.104276 0.004912 -3.252277
v -1.805569 0.004912 -3.285908
v -1.739894 0.004909 3.221830
v -3.104276 0.004909 3.217637
v -1.805569 0.004912 -3.285908
v -1.805569 0.247587 -3.285909
v -1.739894 0.247585 3.221830
v -1.739894 0.004909 3.221830
v -1.805569 0.247587 -3.285909
v -3.104276 0.247587 -3.252277
v -3.104276 0.247585 3.217637
v -1.739894 0.247585 3.221830
v -3.104276 0.247587 -3.252277
v -3.104276 0.004912 -3.252277
v -3.104276 0.004909 3.217637
v -3.104276 0.247585 3.217637
v -1.672734 0.026066 -3.337130
v -0.451605 0.026066 -3.285909
v -0.451605 0.026064 3.221832
v -1.672734 0.026064 3.238062
v -0.451605 0.026066 -3.285909
v -0.451605 0.268742 -3.285909
v -0.451605 0.268739 3.221832
v -0.451605 0.026064 3.221832
v -0.451605 0.268742 -3.285909
v -1.672734 0.268742 -3.337130
v -1.672734 0.268739 3.238062
v -0.451605 0.268739 3.221832
v -1.672734 0.268742 -3.337130
v -1.672734 0.026066 -3.337130
v -1.672734 0.026064 3.238062
v -1.672734 0.268739 3.238062
v 1.834241 0.026066 -3.337130
v 3.055370 0.026066 -3.285909
v 3.055370 0.026064 3.221832
v 1.834241 0.026064 3.238062
v 3.055370 0.026066 -3.285909
v 3.055370 0.268742 -3.285909
v 3.055370 0.268739 3.221832
v 3.055370 0.026064 3.221832
v 3.055370 0.268742 -3.285909
v 1.834241 0.268742 -3.337130
v 1.834241 0.268739 3.238062
v 3.055370 0.268739 3.221832
v 1.834241 0.268742 -3.337130
v 1.834241 0.026066 -3.337130
v 1.834241 0.026064 3.238062
v 1.834241 0.268739 3.238062
v -0.077090 3.267616 2.690718
v 0.327221 3.267616 2.879251
v -0.068760 -0.634816 2.584377
v 0.289037 -0.634816 2.751220
v 0.272854 3.267616 3.322033
v 0.240925 -0.634816 3.143063
v -0.165057 3.267616 3.407154
v -0.146607 -0.634816 3.218391
v -0.381334 3.267616 3.016980
v -0.338003 -0.634816 2.873105
v -0.381334 3.267616 3.016980
v -0.338003 -0.634816 2.873105
v 0.509289 3.193343 -3.012674
v 0.249954 3.232101 -2.651765
v 0.331143 -0.634816 -2.971128
v 0.099094 -0.634816 -2.651740
v -0.169660 3.294812 -2.789620
v -0.276369 -0.634816 -2.773736
v -0.169660 3.294812 -3.235728
v -0.276369 -0.634816 -3.168521
v 0.249954 3.232101 -3.373582
v 0.099094 -0.634816 -3.290516
v 0.249954 3.232101 -3.373582
v 0.099094 -0.634816 -3.290516
v 0.327221 -13.025804 2.879251
v -0.077090 -13.025804 2.690718
v 0.272854 -13.025804 3.322033
v -0.165057 -13.025804 3.407155
v -0.381334 -13.025804 3.016980
v -0.381334 -13.025804 3.016980
v 0.112585 -13.025804 -2.610220
v 0.374800 -13.025804 -2.971128
v -0.311689 -13.025804 -2.748075
v -0.311689 -13.025804 -3.194182
v 0.112585 -13.025804 -3.332037
v 0.112585 -13.025804 -3.332037
vt -0.211406 1.625100
vt 0.211404 0.001499
vt 0.207478 1.631930
vt -0.211404 0.002350
vt 0.207478 1.631930
vt 0.288594 0.001499
vt 0.292523 1.631930
vt 0.211404 0.001499
vt 0.292523 1.631930
vt 0.711405 0.002350
vt 0.711404 1.625100
vt 0.288594 0.001499
vt 0.788596 0.002350
vt 0.788594 1.625100
vt 0.357681 1.631930
vt -0.061237 1.619110
vt -0.057679 0.024602
vt 0.361235 0.001499
vt 0.938763 1.619110
vt 0.861235 1.619110
vt 0.857681 0.024602
vt 0.942321 0.024602
vt 0.861235 1.619110
vt 0.442321 1.631930
vt 0.438763 0.001499
vt 0.857681 0.024602
vt 0.442321 1.631930
vt 0.357681 1.631930
vt 0.361235 0.001499
vt 0.438763 0.001499
vt 0.712794 1.625100
vt 0.293911 1.631930
vt 0.289984 0.001499
vt 0.712793 0.002350
vt 0.293911 1.631930
vt 0.208866 1.631930
vt 0.212794 0.001499
vt 0.289984 0.001499
vt 0.208866 1.631930
vt -0.210016 1.625100
vt -0.210016 0.002350
vt 0.212794 0.001499
vt 0.789984 1.625100
vt 0.712794 1.625100
vt 0.712793 0.002350
vt 0.789984 0.002350
vt 0.214077 0.001499
vt 0.633145 0.011848
vt 0.633145 1.628650
vt 0.214077 1.631930
vt 0.633145 0.011848
vt 0.714077 0.011848
vt 0.714077 1.628650
vt 0.633145 1.628650
vt 0.714077 0.011848
vt 1.133150 0.001499
vt 1.133150 1.631930
vt 0.714077 1.628650
vt 0.133145 0.001499
vt 0.214077 0.001499
vt 0.214077 1.631930
vt 0.133145 1.631930
vt 0.214077 0.001499
vt 0.633145 0.011848
vt 0.633145 1.628650
vt 0.214077 1.631930
vt 0.633145 0.011848
vt 0.714077 0.011848
vt 0.714077 1.628650
vt 0.633145 1.628650
vt 0.714077 0.011848
vt 1.133150 0.001499
vt 1.133150 1.631930
vt 0.714077 1.628650
vt 0.133145 0.001499
vt 0.214077 0.001499
vt 0.214077 1.631930
vt 0.133145 1.631930
vt 0.442500 3.308350
vt 0.314754 3.308350
vt 0.442500 2.516360
vt 0.314754 2.516360
vt 0.203786 3.308350
vt 0.203786 2.516360
vt 0.091214 3.308350
vt 0.091214 2.516360
vt -0.019754 3.308350
vt -0.019754 2.516360
vt 0.570246 3.308350
vt 0.570246 2.516360
vt 0.442500 3.308350
vt 0.314754 3.308350
vt 0.442500 2.516360
vt 0.314754 2.516360
vt 0.203786 3.308350
vt 0.203786 2.516360
vt 0.091214 3.308350
vt 0.091214 2.516360
vt -0.019754 3.308350
vt -0.019754 2.516360
vt 0.570246 3.308350
vt 0.570246 2.516360
vt 0.314754 0.001653
vt 0.442500 0.001653
vt 0.203786 0.001653
vt 0.091214 0.001653
vt -0.019754 0.001653
vt 0.570246 0.001653
vt 0.314754 0.001653
vt 0.442500 0.001653
vt 0.203786 0.001653
vt 0.091214 0.001653
vt -0.019754 0.001653
vt 0.570246 0.001653
vn 0.0000 -1.0000 0.0000
vn -0.9999 0.0000 -0.0097
vn 0.0000 1.0000 0.0000
vn 0.6954 0.7186 0.0000
vn 0.7011 0.7130 0.0000
vn 1.0000 0.0000 0.0000
vn 1.0000 0.0000 0.0057
vn -1.0000 0.0000 -0.0056
vn 0.9999 0.0000 -0.0101
vn -1.0000 0.0000 0.0000
vn -0.1935 0.0263 -0.9807
vn 0.8806 0.0069 -0.4738
vn -0.1891 0.0089 -0.9819
vn 0.8706 0.0027 -0.4919
vn 0.7238 -0.0375 0.6890
vn 0.7360 -0.0127 0.6768
vn -0.4168 -0.0459 0.9078
vn -0.4262 -0.0158 0.9044
vn -0.8743 -0.0276 0.4846
vn -0.8746 -0.0093 0.4848
vn -0.7312 0.0170 -0.6819
vn -0.7313 0.0059 -0.6820
vn 0.9989 -0.0466 -0.0043
vn 0.2723 -0.0105 0.9621
vn 0.9998 -0.0217 0.0020
vn 0.3023 -0.0039 0.9532
vn -0.8257 0.0246 0.5635
vn -0.8103 0.0139 0.5858
vn -0.8230 0.0126 -0.5679
vn -0.8123 0.0077 -0.5832
vn -0.3129 -0.0078 -0.9497
vn -0.3090 -0.0028 -0.9510
vn 0.8090 -0.0441 -0.5861
vn 0.8089 -0.0205 -0.5876
vn 0.8765 -0.0023 -0.4813
vn -0.1916 -0.0083 -0.9814
vn 0.7291 0.0117 0.6843
vn -0.4209 0.0144 0.9070
vn -0.8746 0.0087 0.4848
vn -0.7313 -0.0053 -0.6820
vn 0.3090 0.0035 0.9510
vn 1.0000 0.0035 0.0000
vn -0.8090 0.0035 0.5878
vn -0.8090 0.0035 -0.5878
vn -0.3090 0.0028 -0.9510
vn 0.8090 0.0028 -0.5878
usemtl Material_Material_#13
s 1
f 41/41/9 42/42/9 43/43/9
f 42/42/9 41/41/9 44/44/9
f 45/45/10 46/46/10 47/47/10
f 46/46/10 45/45/10 48/48/10
f 49/49/11 50/50/12 51/51/13
f 50/50/12 49/49/11 52/52/11
f 51/51/13 53/53/14 54/54/14
f 53/53/14 51/51/13 50/50/12
f 55/55/9 56/56/9 57/57/9
f 57/57/9 58/58/9 55/55/9
f 59/59/15 60/60/15 61/61/15
f 61/61/15 62/62/15 59/59/15
f 63/63/11 64/64/11 65/65/11
f 65/65/11 66/66/11 63/63/11
f 67/67/16 68/68/16 69/69/16
f 69/69/16 70/70/16 67/67/16
f 71/71/9 72/72/9 73/73/9
f 73/73/9 74/74/9 71/71/9
f 75/75/17 76/76/17 77/77/17
f 77/77/17 78/78/17 75/75/17
f 79/79/11 80/80/11 81/81/11
f 81/81/11 82/82/11 79/79/11
f 83/83/18 84/84/18 85/85/18
f 85/85/18 86/86/18 83/83/18
f 87/87/9 88/88/9 89/89/9
f 89/89/9 90/90/9 87/87/9
f 91/91/14 92/92/14 93/93/14
f 93/93/14 94/94/14 91/91/14
f 95/95/11 96/96/11 97/97/11
f 97/97/11 98/98/11 95/95/11
f 99/99/18 100/100/18 101/101/18
f 101/101/18 102/102/18 99/99/18
f 103/103/9 104/104/9 105/105/9
f 105/105/9 106/106/9 103/103/9
f 107/107/14 108/108/14 109/109/14
f 109/109/14 110/110/14 107/107/14
f 111/111/11 112/112/11 113/113/11
f 113/113/11 114/114/11 111/111/11
f 115/115/18 116/116/18 117/117/18
f 117/117/18 118/118/18 115/115/18
f 119/119/19 120/120/20 121/121/21
f 122/122/22 121/121/21 120/120/20
f 120/120/20 123/123/23 122/122/22
f 124/124/24 122/122/22 123/123/23
f 123/123/23 125/125/25 124/124/24
f 126/126/26 124/124/24 125/125/25
f 125/125/25 127/127/27 126/126/26
f 128/128/28 126/126/26 127/127/27
f 129/129/29 119/119/19 130/130/30
f 121/121/21 130/130/30 119/119/19
f 131/131/31 132/132/32 133/133/33
f 134/134/34 133/133/33 132/132/32
f 132/132/32 135/135/35 134/134/34
f 136/136/36 134/134/34 135/135/35
f 135/135/35 137/137/37 136/136/36
f 138/138/38 136/136/36 137/137/37
f 137/137/37 139/139/39 138/138/38
f 140/140/40 138/138/38 139/139/39
f 141/141/41 131/131/31 142/142/42
f 133/133/33 142/142/42 131/131/31
f 122/122/22 143/143/43 121/121/21
f 144/144/44 121/121/21 143/143/43
f 124/124/24 145/145/45 122/122/22
f 143/143/43 122/122/22 145/145/45
f 126/126/26 146/146/46 124/124/24
f 145/145/45 124/124/24 146/146/46
f 128/128/28 147/147/47 126/126/26
f 146/146/46 126/126/26 147/147/47
f 121/121/21 144/144/44 130/130/30
f 148/148/48 130/130/30 144/144/44
f 134/134/34 149/149/49 133/133/33
f 150/150/50 133/133/33 149/149/49
f 136/136/36 151/151/51 134/134/34
f 149/149/49 134/134/34 151/151/51
f 138/138/38 152/152/52 136/136/36
f 151/151/51 136/136/36 152/152/52
f 140/140/40 153/153/53 138/138/38
f 152/152/52 138/138/38 153/153/53
f 133/133/33 150/150/50 142/142/42
f 154/154/54 142/142/42 150/150/50
o nifid_11-matrix_Tri_Ex_common_plat_Cent_2-lib
v -0.004681 3.547867 3.063227
v 0.327221 3.267616 2.879251
v -0.077090 3.267616 2.690718
v 0.272854 3.267616 3.322033
v -0.381334 3.267616 3.016980
v -0.165057 3.267616 3.407154
v 0.175399 3.526607 -3.012674
v 0.249954 3.232101 -2.651765
v 0.509289 3.193343 -3.012674
v -0.169660 3.294812 -2.789620
v 0.249954 3.232101 -3.373582
v -0.169660 3.294812 -3.235728
vt 0.447266 0.500000
vt 0.617916 0.000499
vt 0.999501 0.500000
vt 0.000500 0.191292
vt 0.617916 0.999500
vt 0.000500 0.808708
vt 0.447266 0.500000
vt 0.617916 0.000499
vt 0.999501 0.500000
vt 0.000500 0.191292
vt 0.617916 0.999500
vt 0.000500 0.808708
vn 0.0000 1.0000 0.0000
vn 0.5196 0.8044 -0.2880
vn -0.1133 0.8044 -0.5831
vn 0.4345 0.8044 0.4051
vn -0.5896 0.8044 -0.0724
vn -0.2510 0.8044 0.5384
vn 0.1478 0.9890 0.0000
vn 0.3005 0.7684 0.5650
vn 0.7064 0.7078 0.0000
vn -0.3564 0.8666 0.3492
vn 0.3005 0.7684 -0.5650
vn -0.3564 0.8666 -0.3492
usemtl Material_Material_#5
s 1
f 155/155/55 156/156/56 157/157/57
f 155/155/55 158/158/58 156/156/56
f 155/155/55 157/157/57 159/159/59
f 155/155/55 160/160/60 158/158/58
f 155/155/55 159/159/59 160/160/60
f 161/161/61 162/162/62 163/163/63
f 161/161/61 164/164/64 162/162/62
f 161/161/61 163/163/63 165/165/65
f 161/161/61 166/166/66 164/164/64
f 161/161/61 165/165/65 166/166/66
o nifid_6-matrix_Tri_Ex_common_plat_Cent_1-lib
v 3.251198 0.000000 2.133600
v 3.251198 -0.215526 2.222874
v -0.000001 0.000000 2.133600
v -0.000001 -0.215526 2.222874
v 3.251198 -0.304800 2.438400
v -0.000001 -0.304800 2.438400
v 3.251198 -0.215526 2.653926
v -0.000001 -0.215526 2.653926
v 3.251198 0.000000 2.743200
v -0.000001 0.000000 2.743200
v -3.251201 -0.215526 2.222874
v -3.251201 0.000000 2.133600
v -3.251201 -0.304800 2.438400
v -3.251201 -0.215526 2.653926
v -3.251201 0.000000 2.743200
v 3.251198 0.000000 -2.133600
v -0.000001 0.000000 -2.133600
v 3.251198 -0.215526 -2.222874
v -0.000001 -0.215526 -2.222874
v 3.251198 -0.304800 -2.438400
v -0.000001 -0.304800 -2.438400
v 3.251198 -0.215526 -2.653926
v -0.000001 -0.215526 -2.653926
v 3.251198 0.000000 -2.743200
v -0.000001 0.000000 -2.743200
v -3.251201 -0.215526 -2.222874
v -3.251201 0.000000 -2.133600
v -3.251201 -0.304800 -2.438400
v -3.251201 -0.215526 -2.653926
v -3.251201 0.000000 -2.743200
vt 0.000000 1.000000
vt 0.000000 0.875000
vt 1.000000 1.000000
vt 1.000000 0.875000
vt 0.000000 0.750000
vt 1.000000 0.750000
vt 0.000000 0.625000
vt 1.000000 0.625000
vt 0.000000 0.500000
vt 1.000000 0.500000
vt 0.000000 0.875000
vt 0.000000 1.000000
vt 0.000000 0.750000
vt 0.000000 0.625000
vt 0.000000 0.500000
vt 0.000000 1.000000
vt 1.000000 1.000000
vt 0.000000 0.875000
vt 1.000000 0.875000
vt 0.000000 0.750000
vt 1.000000 0.750000
vt 0.000000 0.625000
vt 1.000000 0.625000
vt 0.000000 0.500000
vt 1.000000 0.500000
vt 0.000000 0.875000
vt 0.000000 1.000000
vt 0.000000 0.750000
vt 0.000000 0.625000
vt 0.000000 0.500000
vn 0.0000 -0.3827 -0.9239
vn 0.0000 -0.7071 -0.7071
vn 0.0000 -1.0000 0.0000
vn 0.0000 -0.7071 0.7071
vn 0.0000 -0.3827 0.9239
usemtl Material_Material_#2
s 1
f 167/167/67 168/168/68 169/169/67
f 170/170/68 169/169/67 168/168/68
f 168/168/68 171/171/69 170/170/68
f 172/172/69 170/170/68 171/171/69
f 171/171/69 173/173/70 172/172/69
f 174/174/70 172/172/69 173/173/70
f 173/173/70 175/175/71 174/174/70
f 176/176/71 174/174/70 175/175/71
f 170/170/68 177/177/68 169/169/67
f 178/178/67 169/169/67 177/177/68
f 172/172/69 179/179/69 170/170/68
f 177/177/68 170/170/68 179/179/69
f 174/174/70 180/180/70 172/172/69
f 179/179/69 172/172/69 180/180/70
f 176/176/71 181/181/71 174/174/70
f 180/180/70 174/174/70 181/181/71
f 182/182/71 183/183/71 184/184/70
f 185/185/70 184/184/70 183/183/71
f 184/184/70 185/185/70 186/186/69
f 187/187/69 186/186/69 185/185/70
f 186/186/69 187/187/69 188/188/68
f 189/189/68 188/188/68 187/187/69
f 188/188/68 189/189/68 190/190/67
f 191/191/67 190/190/67 189/189/68
f 185/185/70 183/183/71 192/192/70
f 193/193/71 192/192/70 183/183/71
f 187/187/69 185/185/70 194/194/69
f 192/192/70 194/194/69 185/185/70
f 189/189/68 187/187/69 195/195/68
f 194/194/69 195/195/68 187/187/69
f 191/191/67 189/189/68 196/196/67
f 195/195/68 196/196/67 189/189/68
o nifid_1-matrix_Tri_Ex_common_plat_Cent_0-lib
v -3.251201 0.000000 2.743200
v 3.251198 0.000000 2.743200
v 3.251198 0.000000 2.133600
v -3.251201 0.000000 2.133600
v -3.251201 0.000000 -2.133600
v 3.251198 0.000000 -2.133600
v 3.251198 0.000000 -2.743200
v -3.251201 0.000000 -2.743200
vt 0.000000 0.500000
vt 0.000000 0.500000
vt 0.000000 0.000000
vt 0.000000 0.000000
vt 0.000000 0.000000
vt 0.000000 0.000000
vt 0.000000 0.500000
vt 0.000000 0.500000
vn 0.0000 1.0000 0.0000
usemtl Material_Material_#1
s off
f 197/197/72 198/198/72 199/199/72
f 197/197/72 199/199/72 200/200/72
f 201/201/72 202/202/72 203/203/72
f 201/201/72 203/203/72 204/204/72
