# Blender v2.79 (sub 0) OBJ File: ''
# www.blender.org
mtllib ex_de_shack_door.mtl
o nifid_16-matrix_Tri_Ex_De_Shack_Door_3-lib
v 0.883978 -0.024988 0.153947
v 0.744569 -0.114338 0.245335
v 0.765758 -0.169915 0.280941
v 0.855890 0.022019 0.137409
v 0.723382 -0.169915 0.209728
v 0.827802 -0.024988 0.120870
v 0.744569 -0.225491 0.245335
v 0.855890 -0.080564 0.137409
v 0.765758 -0.169915 0.280941
v 0.883978 -0.024988 0.153947
v 0.765758 -0.169915 0.280941
v 0.601375 -0.214469 0.271445
v 0.609313 -0.270045 0.320399
v 0.744569 -0.114338 0.245335
v 0.593436 -0.270045 0.222493
v 0.723382 -0.169915 0.209728
v 0.601375 -0.325621 0.271445
v 0.744569 -0.225491 0.245335
v 0.609313 -0.270045 0.320399
v 0.765758 -0.169915 0.280941
v 0.483657 -0.214469 0.271445
v 0.475220 -0.270045 0.320154
v 0.492094 -0.270045 0.222738
v 0.483657 -0.325621 0.271445
v 0.475220 -0.270045 0.320154
v 0.342134 -0.138935 0.264771
v 0.318101 -0.194511 0.294632
v 0.366167 -0.194511 0.234913
v 0.342134 -0.250087 0.264771
v 0.318101 -0.194511 0.294632
v 0.217820 0.000234 0.193494
v 0.190087 -0.046773 0.211699
v 0.245554 -0.055342 0.175289
v 0.217820 -0.102349 0.193494
v 0.190087 -0.046773 0.211699
vt 4.541540 -0.045842
vt 3.703540 0.451707
vt 3.703540 -0.045842
vt 4.541540 0.451707
vt 3.703540 0.949256
vt 4.541540 0.949256
vt 3.703540 1.446810
vt 4.541540 1.446810
vt 3.703540 1.944350
vt 4.541540 1.944350
vt 2.703000 -0.062480
vt 1.568000 -0.062480
vt 1.568000 -0.560029
vt 2.703000 0.435069
vt 1.568000 0.435069
vt 2.703000 0.932618
vt 1.568000 0.932618
vt 2.703000 1.430170
vt 1.568000 1.430170
vt 2.703000 1.937520
vt 1.000000 -0.062480
vt 1.000000 -0.560029
vt 1.000000 0.435069
vt 1.000000 0.932618
vt 1.000000 1.430170
vt 0.054001 -0.062480
vt 0.054001 -0.560029
vt 0.054001 0.435069
vt 0.054001 0.932618
vt 0.054001 1.430170
vt -1.000000 -0.062480
vt -1.000000 -0.560029
vt -1.000000 0.435069
vt -1.000000 0.932618
vt -1.000000 1.430170
vn 0.2496 0.4741 0.8443
vn -0.4473 0.7708 0.4536
vn 0.1580 0.5747 0.8029
vn -0.3141 0.7194 0.6195
vn -0.3375 -0.2928 -0.8946
vn -0.8453 0.3121 -0.4336
vn 0.6339 -0.6919 -0.3454
vn 0.4911 -0.7342 -0.4687
vn 0.8469 -0.4771 0.2348
vn 0.8418 -0.4917 0.2225
vn -0.1877 0.5145 0.8367
vn -0.3107 0.9440 0.1108
vn -0.0931 0.6502 0.7540
vn -0.4791 0.7902 0.3820
vn 0.0414 -0.1137 -0.9926
vn -0.3294 0.2640 -0.9065
vn 0.2745 -0.9616 -0.0041
vn 0.5636 -0.8215 -0.0863
vn 0.3126 -0.6514 0.6913
vn 0.5314 -0.5912 0.6066
vn 0.2570 0.9660 0.0283
vn 0.1064 0.6218 0.7759
vn -0.0444 -0.0717 -0.9964
vn -0.2252 -0.9743 -0.0042
vn -0.2385 -0.6606 0.7118
vn 0.5137 0.7635 0.3913
vn 0.0402 0.4517 0.8912
vn 0.1749 0.0692 -0.9821
vn -0.5633 -0.8225 -0.0782
vn -0.6972 -0.5562 0.4522
vn 0.3562 0.6810 0.6398
vn -0.1080 0.4138 0.9039
vn 0.6738 0.2845 -0.6819
vn -0.6490 -0.6811 -0.3389
vn -0.7953 -0.5086 0.3299
usemtl Material_.003
s 1
f 1/1/1 2/2/2 3/3/3
f 1/1/1 4/4/4 2/2/2
f 4/4/4 5/5/5 2/2/2
f 4/4/4 6/6/6 5/5/5
f 6/6/6 7/7/7 5/5/5
f 6/6/6 8/8/8 7/7/7
f 8/8/8 9/9/9 7/7/7
f 8/8/8 10/10/10 9/9/9
f 11/11/11 12/12/12 13/13/13
f 11/11/11 14/14/14 12/12/12
f 14/14/14 15/15/15 12/12/12
f 14/14/14 16/16/16 15/15/15
f 16/16/16 17/17/17 15/15/15
f 16/16/16 18/18/18 17/17/17
f 18/18/18 19/19/19 17/17/17
f 18/18/18 20/20/20 19/19/19
f 13/13/13 21/21/21 22/22/22
f 13/13/13 12/12/12 21/21/21
f 12/12/12 23/23/23 21/21/21
f 12/12/12 15/15/15 23/23/23
f 15/15/15 24/24/24 23/23/23
f 15/15/15 17/17/17 24/24/24
f 17/17/17 25/25/25 24/24/24
f 17/17/17 19/19/19 25/25/25
f 22/22/22 26/26/26 27/27/27
f 22/22/22 21/21/21 26/26/26
f 21/21/21 28/28/28 26/26/26
f 21/21/21 23/23/23 28/28/28
f 23/23/23 29/29/29 28/28/28
f 23/23/23 24/24/24 29/29/29
f 24/24/24 30/30/30 29/29/29
f 24/24/24 25/25/25 30/30/30
f 27/27/27 31/31/31 32/32/32
f 27/27/27 26/26/26 31/31/31
f 26/26/26 33/33/33 31/31/31
f 26/26/26 28/28/28 33/33/33
f 28/28/28 34/34/34 33/33/33
f 28/28/28 29/29/29 34/34/34
f 29/29/29 35/35/35 34/34/34
f 29/29/29 30/30/30 35/35/35
o nifid_11-matrix_Tri_Ex_De_Shack_Door_2-lib
v 0.880086 -0.247079 0.239210
v 1.050016 -0.247079 0.239210
v 1.086110 -0.200072 0.232713
v 0.843992 -0.200072 0.232713
v 1.098753 -0.144558 0.219323
v 0.831348 -0.144558 0.219323
v 1.098753 -0.050813 0.215552
v 0.831348 -0.050813 0.215552
v 0.703599 -0.425498 0.039931
v 1.226502 -0.425498 0.039931
v 1.328497 -0.280134 -0.002694
v 1.336100 -0.144558 -0.024652
v 1.336100 -0.050813 -0.037033
v 0.565877 -0.050813 -0.037033
v 0.565877 -0.144558 -0.024652
v 0.601605 -0.280134 -0.002694
vt 0.195979 0.102038
vt 0.804019 0.102038
vt 0.933171 0.371506
vt 0.066827 0.371506
vt 0.978411 0.689734
vt 0.021586 0.689734
vt 0.978411 1.227120
vt 0.021586 1.227120
vt -0.435525 -0.920733
vt 1.435520 -0.920733
vt 1.800480 -0.087446
vt 1.928320 0.689734
vt 1.928320 1.227120
vt -0.928322 1.227120
vt -0.928322 0.689734
vt -0.800480 -0.087446
vn -0.1851 -0.3437 0.9206
vn 0.1680 -0.3429 0.9242
vn 0.3817 0.0020 0.9243
vn -0.3832 -0.0214 0.9234
vn 0.4156 0.0807 0.9059
vn -0.3963 0.0824 0.9144
vn 0.3936 0.0428 0.9182
vn -0.3742 0.0373 0.9266
vn -0.4195 -0.4594 0.7829
vn 0.4202 -0.4733 0.7742
vn 0.6876 -0.0675 0.7230
vn 0.7201 0.0766 0.6896
vn 0.7258 0.0901 0.6820
vn -0.6763 0.0854 0.7316
vn -0.6799 0.0317 0.7326
vn -0.6605 -0.1367 0.7382
usemtl Material_.002
s 1
f 36/36/36 37/37/37 38/38/38
f 38/38/38 39/39/39 36/36/36
f 39/39/39 38/38/38 40/40/40
f 40/40/40 41/41/41 39/39/39
f 41/41/41 40/40/40 42/42/42
f 42/42/42 43/43/43 41/41/41
f 44/44/44 45/45/45 37/37/37
f 37/37/37 36/36/36 44/44/44
f 45/45/45 46/46/46 38/38/38
f 38/38/38 37/37/37 45/45/45
f 46/46/46 47/47/47 40/40/40
f 40/40/40 38/38/38 46/46/46
f 47/47/47 48/48/48 42/42/42
f 42/42/42 40/40/40 47/47/47
f 49/49/49 50/50/50 41/41/41
f 41/41/41 43/43/43 49/49/49
f 50/50/50 51/51/51 39/39/39
f 39/39/39 41/41/41 50/50/50
f 51/51/51 44/44/44 36/36/36
f 36/36/36 39/39/39 51/51/51
o nifid_6-matrix_Tri_Ex_De_Shack_Door_1-lib
v -1.303160 -0.063127 0.013360
v -1.187938 -0.081252 0.237975
v -1.187938 0.055212 0.237975
v -1.303160 0.061932 0.013360
v -1.044495 -0.089234 0.293799
v -1.044495 0.044992 0.293799
v -0.581654 -0.123066 0.318567
v -0.581679 0.038579 0.318567
v 0.646159 -0.084451 0.251930
v 0.646159 0.080690 0.251930
v -1.304897 -0.254943 -0.280491
v 1.178650 -0.077508 0.218913
v 1.297445 -0.216831 -0.241012
v 1.273040 0.366402 -0.241012
v 1.273040 0.088965 0.052943
v 1.297445 -0.078456 0.052943
v -1.304897 0.180736 -0.280491
v -1.304897 0.180736 -0.280491
v 1.154244 0.069353 0.218912
vt 0.525205 1.199210
vt 0.569437 1.184640
vt 0.569437 1.294340
vt 0.525205 1.299740
vt 0.624502 1.178220
vt 0.624502 1.286130
vt 0.802180 1.151020
vt 0.802171 1.280970
vt 1.273520 1.182070
vt 1.273520 1.314820
vt 0.524538 0.730371
vt 1.477930 1.187650
vt 1.523540 0.761009
vt 1.514170 1.665520
vt 1.514170 1.321480
vt 1.523540 1.186890
vt 0.524538 1.838630
vt 0.524538 1.516270
vt 1.468570 1.305710
vn -0.9368 -0.2165 0.2748
vn -0.5763 -0.4708 0.6679
vn -0.5201 0.5540 0.6500
vn -0.8876 0.3641 0.2820
vn -0.1980 -0.5455 0.8144
vn -0.1480 0.5853 0.7972
vn 0.0088 -0.6342 0.7731
vn -0.0088 0.5972 0.8020
vn 0.0550 -0.6243 0.7793
vn 0.0544 0.6749 0.7359
vn -0.6447 -0.7267 0.2370
vn 0.4236 -0.4790 0.7689
vn 0.6480 -0.7182 0.2535
vn 0.4143 0.6619 0.6247
vn 0.7341 0.5227 0.4333
vn 0.8993 -0.2871 0.3299
vn -0.1070 0.9629 0.2476
vn -0.9911 0.0938 0.0943
vn 0.3476 0.5993 0.7211
usemtl Material_.001
s 1
f 52/52/52 53/53/53 54/54/54
f 54/54/54 55/55/55 52/52/52
f 53/53/53 56/56/56 57/57/57
f 57/57/57 54/54/54 53/53/53
f 56/56/56 58/58/58 59/59/59
f 59/59/59 57/57/57 56/56/56
f 58/58/58 60/60/60 61/61/61
f 61/61/61 59/59/59 58/58/58
f 53/53/53 52/52/52 62/62/62
f 56/56/56 53/53/53 62/62/62
f 58/58/58 56/56/56 62/62/62
f 60/60/60 58/58/58 62/62/62
f 62/62/62 63/63/63 60/60/60
f 64/64/64 65/65/65 66/66/66
f 66/66/66 67/67/67 64/64/64
f 59/59/59 61/61/61 68/68/68
f 57/57/57 59/59/59 68/68/68
f 54/54/54 57/57/57 68/68/68
f 55/55/55 54/54/54 68/68/68
f 69/69/69 62/62/62 52/52/52
f 52/52/52 55/55/55 69/69/69
f 61/61/61 60/60/60 63/63/63
f 63/63/63 70/70/70 61/61/61
f 68/68/68 61/61/61 70/70/70
f 70/70/70 63/63/63 67/67/67
f 67/67/67 66/66/66 70/70/70
f 63/63/63 62/62/62 64/64/64
f 64/64/64 67/67/67 63/63/63
f 70/70/70 66/66/66 68/68/68
f 66/66/66 65/65/65 69/69/69
o nifid_1-matrix_Tri_Ex_De_Shack_Door_0-lib
v -0.898697 -1.923597 0.071274
v -0.626698 -1.923597 0.345877
v -0.661624 -0.976421 0.261745
v -0.806242 -0.976421 -0.032207
v -0.599508 0.612683 0.161318
v -0.742000 0.612683 -0.090547
v -0.570402 1.783346 0.006730
v -0.715046 1.926458 -0.345877
v -0.098977 -1.926458 0.345877
v -0.123592 -0.584560 0.261745
v -0.071787 0.612683 0.161318
v -0.042682 1.783747 0.006730
v 0.159075 -1.926458 0.071274
v 0.033972 -0.584560 -0.032207
v 0.087901 0.612683 -0.143544
v 0.114855 1.912476 -0.345877
v -1.387273 -1.923597 0.071274
v -1.110343 -1.923597 0.345877
v -1.191482 -0.561623 0.268913
v -1.336099 -0.561623 -0.025040
v -1.129735 0.955561 0.099816
v -1.272228 0.955561 -0.205046
v -1.090264 1.783403 0.006730
v -1.234907 1.838014 -0.345877
v -0.690530 -1.923597 0.345877
v -0.761672 -0.771557 0.268913
v -0.723536 0.955561 0.099816
v -0.670450 1.783914 0.006730
v -0.431533 -1.923597 0.071274
v -0.604109 -0.771557 -0.025040
v -0.563849 0.955561 -0.205046
v -0.512914 1.912476 -0.345877
v -0.266910 -1.923597 0.071274
v 0.004145 -1.923597 0.345877
v -0.017009 -0.771557 0.261745
v -0.233121 -0.771557 -0.032207
v 0.048004 -0.012056 0.214315
v -0.094490 -0.012056 -0.090547
v 0.056433 1.783373 0.006730
v -0.088211 1.926458 -0.345877
v 0.480629 -1.923597 0.345877
v 0.478729 -0.771557 0.261745
v 0.524487 -0.012056 0.214315
v 0.532916 1.783571 0.006730
v 0.753289 -1.923597 0.071274
v 0.636292 -0.771557 -0.032207
v 0.684175 -0.012056 -0.090547
v 0.690453 1.824032 -0.345877
v 0.329731 -1.920900 0.010150
v 0.615395 -1.920900 0.356249
v 0.682699 -0.325143 0.207340
v 0.466587 -0.325143 -0.086613
v 0.646037 0.926062 0.099761
v 0.503544 0.926062 -0.205101
v 0.578047 1.783887 0.006730
v 0.433403 1.820884 -0.345877
v 1.154465 -1.920900 0.356249
v 1.178437 -0.325143 0.207340
v 1.122520 0.926062 0.099761
v 1.054531 1.783571 0.006730
v 1.377124 -1.920900 0.010150
v 1.336000 -0.325143 -0.086613
v 1.282208 0.926062 -0.205101
v 1.212067 1.824032 -0.345877
vt 0.214695 0.001241
vt 0.273613 0.001241
vt 0.276344 0.246829
vt 0.222277 0.246829
vt 0.283779 0.658859
vt 0.230506 0.658859
vt 0.294660 1.000000
vt 0.240583 1.000000
vt 0.510380 0.000500
vt 0.509072 0.348433
vt 0.520545 0.658859
vt 0.519585 1.000000
vt 0.564436 0.000500
vt 0.575873 0.348433
vt 0.580247 0.658859
vt 0.578483 1.000000
vt 0.025984 0.001241
vt 0.084902 0.001241
vt 0.054567 0.354380
vt 0.000500 0.354380
vt 0.077652 0.747762
vt 0.024379 0.747762
vt 0.092408 1.000000
vt 0.038332 1.000000
vt 0.249749 0.001241
vt 0.223151 0.299947
vt 0.237409 0.747762
vt 0.257256 1.000000
vt 0.303805 0.001241
vt 0.282058 0.299947
vt 0.297110 0.747762
vt 0.316153 1.000000
vt 0.490016 0.001241
vt 0.548934 0.001241
vt 0.548919 0.299947
vt 0.468122 0.299947
vt 0.581119 0.496874
vt 0.508111 0.496874
vt 0.556641 1.000000
vt 0.502564 1.000000
vt 0.738915 0.001241
vt 0.718469 0.299947
vt 0.743470 0.496874
vt 0.754516 1.000000
vt 0.792971 0.001241
vt 0.777376 0.299947
vt 0.803172 0.496874
vt 0.813413 1.000000
vt 0.730381 0.001941
vt 0.789299 0.001941
vt 0.802620 0.415695
vt 0.721824 0.415695
vt 0.781019 0.740113
vt 0.727746 0.740113
vt 0.771389 1.000000
vt 0.717312 1.000000
vt 0.931631 0.001941
vt 0.940593 0.415695
vt 0.919688 0.740113
vt 0.894269 1.000000
vt 0.985687 0.001941
vt 0.999501 0.415695
vt 0.979389 0.740113
vt 0.953166 1.000000
vn -0.7546 0.0574 0.6536
vn -0.3756 0.0572 0.9250
vn -0.5428 0.0987 0.8340
vn -0.8915 0.0974 0.4423
vn -0.4972 0.0963 0.8622
vn -0.8720 0.0717 0.4841
vn -0.5966 0.1320 0.7916
vn -0.9060 0.0986 0.4116
vn 0.4119 0.0941 0.9063
vn 0.4802 0.0652 0.8747
vn 0.5155 0.0725 0.8538
vn 0.6090 0.0889 0.7882
vn 0.7234 0.1198 0.6799
vn 0.8704 0.0306 0.4913
vn 0.8851 0.0296 0.4645
vn 0.9031 0.0373 0.4278
vn -0.7377 0.0081 0.6751
vn -0.3605 0.0357 0.9320
vn -0.5069 0.0901 0.8572
vn -0.8953 0.0757 0.4389
vn -0.5339 0.1184 0.8372
vn -0.9041 0.0908 0.4175
vn -0.5721 0.1250 0.8106
vn -0.9148 0.1011 0.3909
vn 0.4201 0.1206 0.8994
vn 0.5143 0.0756 0.8542
vn 0.5166 0.0766 0.8528
vn 0.6235 0.0477 0.7803
vn 0.7176 0.1641 0.6768
vn 0.8674 0.0642 0.4934
vn 0.8853 0.0235 0.4643
vn 0.9067 -0.0031 0.4217
vn -0.7301 0.0456 0.6818
vn -0.3750 0.0606 0.9250
vn -0.4551 0.0865 0.8862
vn -0.8164 0.1032 0.5682
vn -0.5065 0.1181 0.8541
vn -0.8999 0.1217 0.4187
vn -0.6130 0.0966 0.7841
vn -0.9156 0.0554 0.3981
vn 0.3989 0.1037 0.9111
vn 0.5074 0.0450 0.8605
vn 0.5220 0.0606 0.8508
vn 0.5758 0.0912 0.8125
vn 0.7032 0.1341 0.6982
vn 0.8674 0.0172 0.4972
vn 0.8850 0.0221 0.4649
vn 0.9070 0.0457 0.4186
vn -0.7729 0.0934 0.6276
vn -0.4237 0.1018 0.9001
vn -0.4401 0.0873 0.8936
vn -0.8133 0.0685 0.5778
vn -0.5213 0.0698 0.8505
vn -0.9085 0.0186 0.4174
vn -0.6041 0.0483 0.7954
vn -0.9256 -0.0130 0.3783
vn 0.4668 0.0831 0.8804
vn 0.5203 0.0838 0.8498
vn 0.5189 0.1182 0.8466
vn 0.5481 0.1330 0.8258
vn 0.8397 0.0544 0.5402
vn 0.8768 0.0593 0.4771
vn 0.8799 0.1118 0.4617
vn 0.8957 0.1228 0.4274
usemtl Material_
s 1
f 71/71/71 72/72/72 73/73/73
f 73/73/73 74/74/74 71/71/71
f 74/74/74 73/73/73 75/75/75
f 75/75/75 76/76/76 74/74/74
f 76/76/76 75/75/75 77/77/77
f 77/77/77 78/78/78 76/76/76
f 72/72/72 79/79/79 80/80/80
f 80/80/80 73/73/73 72/72/72
f 73/73/73 80/80/80 81/81/81
f 81/81/81 75/75/75 73/73/73
f 75/75/75 81/81/81 82/82/82
f 82/82/82 77/77/77 75/75/75
f 79/79/79 83/83/83 84/84/84
f 84/84/84 80/80/80 79/79/79
f 80/80/80 84/84/84 85/85/85
f 85/85/85 81/81/81 80/80/80
f 81/81/81 85/85/85 86/86/86
f 86/86/86 82/82/82 81/81/81
f 87/87/87 88/88/88 89/89/89
f 89/89/89 90/90/90 87/87/87
f 90/90/90 89/89/89 91/91/91
f 91/91/91 92/92/92 90/90/90
f 92/92/92 91/91/91 93/93/93
f 93/93/93 94/94/94 92/92/92
f 88/88/88 95/95/95 96/96/96
f 96/96/96 89/89/89 88/88/88
f 89/89/89 96/96/96 97/97/97
f 97/97/97 91/91/91 89/89/89
f 91/91/91 97/97/97 98/98/98
f 98/98/98 93/93/93 91/91/91
f 95/95/95 99/99/99 100/100/100
f 100/100/100 96/96/96 95/95/95
f 96/96/96 100/100/100 101/101/101
f 101/101/101 97/97/97 96/96/96
f 97/97/97 101/101/101 102/102/102
f 102/102/102 98/98/98 97/97/97
f 103/103/103 104/104/104 105/105/105
f 105/105/105 106/106/106 103/103/103
f 106/106/106 105/105/105 107/107/107
f 107/107/107 108/108/108 106/106/106
f 108/108/108 107/107/107 109/109/109
f 109/109/109 110/110/110 108/108/108
f 104/104/104 111/111/111 112/112/112
f 112/112/112 105/105/105 104/104/104
f 105/105/105 112/112/112 113/113/113
f 113/113/113 107/107/107 105/105/105
f 107/107/107 113/113/113 114/114/114
f 114/114/114 109/109/109 107/107/107
f 111/111/111 115/115/115 116/116/116
f 116/116/116 112/112/112 111/111/111
f 112/112/112 116/116/116 117/117/117
f 117/117/117 113/113/113 112/112/112
f 113/113/113 117/117/117 118/118/118
f 118/118/118 114/114/114 113/113/113
f 119/119/119 120/120/120 121/121/121
f 121/121/121 122/122/122 119/119/119
f 122/122/122 121/121/121 123/123/123
f 123/123/123 124/124/124 122/122/122
f 124/124/124 123/123/123 125/125/125
f 125/125/125 126/126/126 124/124/124
f 120/120/120 127/127/127 128/128/128
f 128/128/128 121/121/121 120/120/120
f 121/121/121 128/128/128 129/129/129
f 129/129/129 123/123/123 121/121/121
f 123/123/123 129/129/129 130/130/130
f 130/130/130 125/125/125 123/123/123
f 127/127/127 131/131/131 132/132/132
f 132/132/132 128/128/128 127/127/127
f 128/128/128 132/132/132 133/133/133
f 133/133/133 129/129/129 128/128/128
f 129/129/129 133/133/133 134/134/134
f 134/134/134 130/130/130 129/129/129
