# Blender v2.79 (sub 0) OBJ File: ''
# www.blender.org
mtllib ex_de_ship_door.mtl
o nifid_6-matrix_Tri_Ex_DE_shipdoor_0-lib
v 1.145493 2.106792 -0.000000
v -1.145493 2.105643 -0.000000
v 1.145493 -2.105640 -0.000002
v -1.145493 -2.106790 -0.000002
vt 0.999501 0.000499
vt 0.999228 0.999500
vt 0.000772 0.000500
vt 0.000500 0.999500
vn 0.0000 -0.0000 1.0000
usemtl Material_.001
s off
f 1/1/1 2/2/1 3/3/1
f 4/4/1 3/3/1 2/2/1
o nifid_1-matrix_cabindoor_handle-lib
v 1.074866 0.336271 0.016747
v 0.975253 0.335581 0.020008
v 0.949237 0.266662 0.024780
v 1.106286 0.266662 0.019507
v 0.968873 0.198732 0.020077
v 0.949237 0.266662 0.024780
v 0.965159 0.198731 -0.015486
v 0.944537 0.266662 -0.020221
v 1.087055 0.203100 0.014875
v 0.968873 0.198732 0.020077
v 1.083341 0.203100 -0.020688
v 0.965159 0.198731 -0.015486
v 1.074866 0.336271 0.016747
v 1.106286 0.266662 0.019507
v 1.101586 0.266662 -0.025494
v 1.070950 0.336271 -0.020754
v 0.975253 0.335581 0.020008
v 1.074866 0.336271 0.016747
v 0.971337 0.335581 -0.017493
v 1.070950 0.336271 -0.020754
v 0.981385 -0.265632 0.020242
v 1.083553 -0.264924 0.016897
v 0.964121 -0.209187 0.024429
v 1.101489 -0.209187 0.019174
v 1.084054 -0.152449 0.015279
v 1.101489 -0.209187 0.019174
v 1.096789 -0.209187 -0.025827
v 1.080138 -0.152449 -0.022222
v 0.981798 -0.150922 0.020764
v 1.084054 -0.152449 0.015279
v 0.977882 -0.150922 -0.016737
v 1.080138 -0.152449 -0.022222
v 0.981385 -0.265632 0.020242
v 0.964121 -0.209187 0.024429
v 0.959422 -0.209187 -0.020572
v 0.977369 -0.265632 -0.018221
v 1.083553 -0.264924 0.016897
v 0.981385 -0.265632 0.020242
v 1.079536 -0.264924 -0.021565
v 0.977369 -0.265632 -0.018221
v 1.029249 0.294097 0.023267
v 1.038562 0.278301 0.064301
v 1.079633 0.282769 0.033760
v 0.987748 0.278983 0.039699
v 1.026819 0.295008 -0.009397
v 0.984566 0.281941 0.009238
v 1.079633 0.282769 0.033760
v 1.041003 0.099622 0.149158
v 1.074172 0.101073 0.103796
v 1.038562 0.278301 0.064301
v 1.003419 0.098240 0.134003
v 1.041003 0.099622 0.149158
v 0.987748 0.278983 0.039699
v 0.987748 0.278983 0.039699
v 0.997704 0.098239 0.079274
v 1.003419 0.098240 0.134003
v 0.984566 0.281941 0.009238
v 0.984566 0.281941 0.009238
v 1.055037 0.098889 0.064810
v 0.997704 0.098239 0.079274
v 1.026819 0.295008 -0.009397
v 1.026819 0.295008 -0.009397
v 1.055037 0.098889 0.064810
v 1.079633 0.282769 0.033760
v 1.048025 -0.024635 0.146250
v 1.086644 -0.022626 0.100889
v 0.997293 -0.023454 0.131096
v 1.048025 -0.024635 0.146250
v 0.991577 -0.023454 0.076367
v 0.997293 -0.023454 0.131096
v 1.054875 -0.024162 0.063261
v 0.991577 -0.023454 0.076367
v 1.054875 -0.024162 0.063261
v 1.086644 -0.022626 0.100889
v 1.039559 -0.208320 0.064229
v 1.079634 -0.209464 0.033760
v 1.048025 -0.024635 0.146250
v 0.988304 -0.206355 0.045030
v 0.984567 -0.210292 0.009238
v 0.988304 -0.206355 0.045030
v 1.025943 -0.226404 -0.009363
v 0.984567 -0.210292 0.009238
v 1.079634 -0.209464 0.033760
v 1.018167 -0.226404 0.035399
v 1.079634 -0.209464 0.033760
v 1.039559 -0.208320 0.064229
v 1.025943 -0.226404 -0.009363
v 0.988304 -0.206355 0.045030
v 0.984567 -0.210292 0.009238
v 0.968873 0.198732 0.020077
v 1.087055 0.203100 0.014875
v 0.975253 0.335581 0.020008
v 0.971337 0.335581 -0.017493
v 1.087055 0.203100 0.014875
v 1.083341 0.203100 -0.020688
v 1.084054 -0.152449 0.015279
v 0.981798 -0.150922 0.020764
v 1.083553 -0.264924 0.016897
v 1.079536 -0.264924 -0.021565
v 0.981798 -0.150922 0.020764
v 0.977882 -0.150922 -0.016737
vt 0.732331 -0.220031
vt 1.374720 -0.217993
vt 1.406740 -0.071589
vt 0.681608 -0.071589
vt 1.235160 0.076851
vt 1.238810 -0.071589
vt 1.467690 0.076853
vt 1.471340 -0.071589
vt 0.635534 0.604368
vt 1.439210 0.588170
vt 0.660789 0.715099
vt 1.464460 0.698902
vt 0.837378 -0.220031
vt 0.833945 -0.071589
vt 0.601411 -0.071589
vt 0.604844 -0.220031
vt 0.725284 0.591621
vt 1.367670 0.601249
vt 0.700028 0.702351
vt 1.342410 0.711979
vt 1.335170 1.220030
vt 0.692782 1.217990
vt 1.352450 1.099300
vt 0.671447 1.099300
vt 0.828640 0.983074
vt 0.832225 1.099300
vt 0.599690 1.099300
vt 0.596107 0.983073
vt 0.730271 0.589212
vt 1.449440 0.605410
vt 0.705014 0.699944
vt 1.424190 0.716140
vt 1.243890 1.220030
vt 1.240620 1.099300
vt 1.473160 1.099300
vt 1.476430 1.220030
vt 0.692782 0.601959
vt 1.335170 0.592331
vt 0.718039 0.712690
vt 1.360420 0.703061
vt 1.066880 0.593631
vt 1.116940 0.492662
vt 1.337650 0.567812
vt 0.843856 0.553197
vt 1.053820 0.674006
vt 0.826760 0.628150
vt 0.907595 -0.111223
vt 1.503890 0.339434
vt 1.269490 0.335863
vt 0.983064 -0.100231
vt 1.203220 0.342835
vt 0.969951 0.339434
vt 1.256140 -0.101908
vt 1.161710 -0.101908
vt 0.957218 0.342835
vt 0.674417 0.342835
vt 1.319120 -0.109185
vt 0.826760 -0.109185
vt 1.205470 0.341237
vt 0.866068 0.342835
vt 1.053820 -0.141339
vt 0.684587 -0.141339
vt 1.068040 0.341237
vt 1.337650 -0.111223
vt 1.488870 0.645184
vt 1.254470 0.640240
vt 1.204850 0.642277
vt 0.932213 0.645184
vt 0.972241 0.642278
vt 0.689440 0.642277
vt 1.204600 0.644020
vt 0.864435 0.642278
vt 1.060040 0.644020
vt 0.724672 0.640240
vt 0.977706 1.097160
vt 0.762347 1.099980
vt 0.488870 0.645184
vt 1.253150 1.092330
vt 1.319120 1.102020
vt 1.134170 1.092330
vt 1.049120 1.141660
vt 0.826761 1.102020
vt 1.337650 1.099980
vt 1.092670 0.563779
vt 0.762347 0.567812
vt 0.977706 0.492838
vt 1.050880 0.673922
vt 1.253150 0.540079
vt 1.273240 0.628151
vt 1.439210 0.076851
vt 0.635534 0.063249
vt 1.242400 -0.217993
vt 1.474940 -0.217993
vt 0.830826 0.063249
vt 0.598293 0.063252
vt 0.650556 0.983074
vt 1.369730 0.978565
vt 0.835886 1.217990
vt 0.603350 1.217990
vt 1.237350 0.978565
vt 1.469880 0.978565
vn 0.0332 0.0552 0.9979
vn 0.0323 0.0569 0.9978
vn 0.0332 -0.0035 0.9994
vn 0.0381 -0.0147 0.9991
vn -0.9540 -0.2827 0.0996
vn -0.9938 0.0405 0.1038
vn -0.9937 0.0419 0.1038
vn 0.0367 -0.9993 -0.0038
vn 0.9087 0.4064 -0.0949
vn 0.9922 0.0691 -0.1036
vn 0.9922 0.0693 -0.1036
vn -0.0069 1.0000 0.0007
vn 0.0331 -0.0638 0.9974
vn 0.0370 -0.0556 0.9977
vn 0.0418 -0.0010 0.9991
vn 0.0382 0.0139 0.9991
vn 0.9530 0.2860 -0.0995
vn 0.9945 -0.0105 -0.1039
vn 0.9945 -0.0069 -0.1039
vn 0.0148 0.9999 -0.0015
vn -0.9495 -0.2977 0.0992
vn -0.9946 -0.0006 0.1039
vn -0.9946 -0.0040 0.1039
vn 0.0069 -1.0000 -0.0007
vn -0.0345 0.9840 0.1744
vn -0.0011 0.9331 0.3594
vn 0.1700 0.9604 0.2207
vn -0.2498 0.9397 0.2333
vn -0.0817 0.9961 0.0338
vn -0.2891 0.9525 0.0953
vn 0.5841 0.3409 0.7366
vn 0.7849 0.1210 0.6077
vn 0.9866 0.0888 0.1365
vn 0.0940 0.4320 0.8969
vn -0.3757 0.2086 0.9030
vn -0.3615 0.1860 0.9136
vn -0.3955 0.3977 0.8279
vn -0.9943 -0.0326 0.1010
vn -0.9946 0.0039 0.1037
vn -0.9945 0.0146 0.1039
vn -0.9944 -0.0327 0.1007
vn -0.2670 -0.3726 -0.8887
vn -0.2428 -0.1771 -0.9538
vn -0.2325 -0.1690 -0.9578
vn -0.2747 -0.3746 -0.8855
vn 0.6259 -0.2734 -0.7304
vn 0.8852 0.0167 -0.4649
vn 0.5563 -0.3134 -0.7696
vn 0.7720 0.0533 0.6334
vn 0.9690 0.1130 -0.2195
vn -0.2921 -0.2293 0.9285
vn -0.2898 -0.2159 0.9324
vn -0.9944 0.0212 0.1038
vn -0.9942 0.0279 0.1038
vn 0.1792 0.2223 -0.9583
vn -0.2025 0.1953 -0.9596
vn 0.7639 0.0071 -0.6453
vn 0.7109 -0.3053 0.6335
vn 0.1625 -0.3793 0.9109
vn 0.5727 -0.2961 0.7644
vn 0.7316 -0.3058 0.6093
vn -0.3267 -0.3757 0.8672
vn -0.9946 0.0000 0.1039
vn 0.1309 0.3065 -0.9428
vn -0.2751 0.3342 -0.9014
vn 0.5960 0.2033 -0.7768
vn -0.1350 -0.9510 0.2782
vn 0.2649 -0.9408 0.2113
vn 0.0887 -0.8721 0.4812
vn -0.0534 -0.9985 -0.0092
vn -0.4410 -0.8258 0.3516
vn -0.4541 -0.8903 0.0349
vn 0.0367 -0.0658 0.9971
vn 0.0470 -0.0867 0.9951
vn -0.9289 0.3573 0.0970
vn 0.9544 -0.2815 -0.0996
vn 0.0420 0.0719 0.9965
vn 0.0542 0.0463 0.9974
vn 0.9484 -0.3011 -0.0990
vn 0.9484 -0.3012 -0.0990
vn -0.9504 0.2946 0.0992
usemtl Material_
s 1
f 5/5/2 6/6/3 7/7/4
f 7/7/4 8/8/5 5/5/2
f 9/9/6 10/10/7 11/11/6
f 12/12/8 11/11/6 10/10/7
f 13/13/9 14/14/9 15/15/9
f 16/16/9 15/15/9 14/14/9
f 17/17/10 18/18/11 19/19/12
f 19/19/12 20/20/10 17/17/10
f 21/21/13 22/22/13 23/23/13
f 24/24/13 23/23/13 22/22/13
f 25/25/14 26/26/15 27/27/16
f 28/28/17 27/27/16 26/26/15
f 29/29/18 30/30/19 31/31/20
f 31/31/20 32/32/18 29/29/18
f 33/33/21 34/34/21 35/35/21
f 36/36/21 35/35/21 34/34/21
f 37/37/22 38/38/23 39/39/24
f 39/39/24 40/40/22 37/37/22
f 41/41/25 42/42/25 43/43/25
f 44/44/25 43/43/25 42/42/25
f 45/45/26 46/46/27 47/47/28
f 45/45/26 48/48/29 46/46/27
f 45/45/26 47/47/28 49/49/30
f 45/45/26 50/50/31 48/48/29
f 45/45/26 49/49/30 50/50/31
f 51/51/32 52/52/33 53/53/34
f 51/51/32 54/54/35 52/52/33
f 54/54/35 55/55/36 56/56/37
f 54/54/35 57/57/38 55/55/36
f 58/58/39 59/59/40 60/60/41
f 58/58/39 61/61/42 59/59/40
f 62/62/43 63/63/44 64/64/45
f 62/62/43 65/65/46 63/63/44
f 66/66/47 53/53/34 67/67/48
f 66/66/47 68/68/49 53/53/34
f 53/53/34 69/69/50 70/70/51
f 53/53/34 52/52/33 69/69/50
f 56/56/37 71/71/52 72/72/53
f 56/56/37 55/55/36 71/71/52
f 60/60/41 73/73/54 74/74/55
f 60/60/41 59/59/40 73/73/54
f 64/64/45 75/75/56 76/76/57
f 64/64/45 63/63/44 75/75/56
f 67/67/48 70/70/51 77/77/58
f 67/67/48 53/53/34 70/70/51
f 78/78/59 79/79/60 80/80/61
f 78/78/59 81/81/62 79/79/60
f 72/72/53 82/82/63 79/79/60
f 72/72/53 71/71/52 82/82/63
f 74/74/55 83/83/64 84/84/64
f 74/74/55 73/73/54 83/83/64
f 76/76/57 85/85/65 86/86/66
f 76/76/57 75/75/56 85/85/65
f 75/75/56 87/87/67 85/85/65
f 75/75/56 70/70/51 87/87/67
f 88/88/68 89/89/69 90/90/70
f 88/88/68 91/91/71 89/89/69
f 88/88/68 90/90/70 92/92/72
f 88/88/68 93/93/73 91/91/71
f 88/88/68 92/92/72 93/93/73
f 7/7/4 94/94/74 8/8/5
f 95/95/75 8/8/5 94/94/74
f 10/10/7 96/96/76 12/12/8
f 97/97/76 12/12/8 96/96/76
f 18/18/11 98/98/77 99/99/77
f 99/99/77 19/19/12 18/18/11
f 28/28/17 100/100/78 27/27/16
f 101/101/79 27/27/16 100/100/78
f 30/30/19 102/102/80 103/103/81
f 103/103/81 31/31/20 30/30/19
f 38/38/23 104/104/82 105/105/82
f 105/105/82 39/39/24 38/38/23
