# Blender v2.79 (sub 0) OBJ File: ''
# www.blender.org
mtllib ex_nord_rock_01.mtl
o nifid_1-matrix_Ex_nord_rock_01-lib
v 0.176348 0.460271 0.312740
v -0.215793 0.513141 0.124726
v -0.095640 0.556574 0.454843
v -0.551330 0.460271 0.497825
v 0.176348 0.460271 0.312740
v 0.254345 -0.729060 0.330532
v 0.236455 -0.729060 0.116293
v 0.160876 -0.729060 -0.008817
v 0.176348 0.460271 0.312740
v 0.160876 -0.729060 -0.008817
v -0.215793 0.513141 0.124726
v 0.160876 -0.729060 -0.008817
v -0.680721 -0.729060 0.281154
v -0.551330 0.460271 0.497825
v -0.653799 -0.729060 0.639264
v -0.551330 0.460271 0.497825
v -0.653799 -0.729060 0.639264
v 0.254345 -0.729060 0.330532
v -0.095640 0.556574 0.454843
v 0.176348 0.460271 0.312740
v -0.003858 0.583683 -0.529648
v 0.256957 0.663518 -0.019184
v 0.256957 0.729102 -0.634503
v 0.552086 0.583683 -0.529648
v -0.003858 0.583683 -0.529648
v -0.058541 -0.729102 -0.611122
v -0.099858 -0.729102 -0.266211
v -0.099860 -0.729102 -0.006498
v 0.256957 0.663518 -0.019184
v 0.256957 0.663518 -0.019184
v -0.099860 -0.729102 -0.006498
v -0.017223 -0.729102 0.076139
v 0.523098 -0.729102 -0.033839
v 0.256957 0.663518 -0.019184
v 0.523098 -0.729102 -0.033839
v 0.552086 0.583683 -0.529648
v 0.665330 -0.729102 -0.611122
v 0.552086 0.583683 -0.529648
v 0.665330 -0.729102 -0.611122
v 0.272004 -0.729102 -0.701921
v 0.256957 0.729102 -0.634503
v -0.058541 -0.729102 -0.611122
v -0.003858 0.583683 -0.529648
v 0.220518 0.460271 0.270846
v 0.393243 0.513141 0.652991
v 0.393243 0.556574 0.230337
v 0.393243 0.556574 0.230337
v 0.393243 0.513141 0.652991
v 0.588693 0.460271 0.270846
v 0.207254 -0.724185 0.232462
v 0.152529 -0.724185 0.433516
v 0.179891 -0.724185 0.632875
v 0.393243 0.513141 0.652991
v 0.179891 -0.724185 0.632875
v 0.565083 -0.724185 0.587406
v 0.565083 -0.724185 0.587406
v 0.659276 -0.724185 0.205099
v 0.588693 0.460271 0.270846
v 0.659276 -0.724185 0.205099
v 0.207254 -0.724185 0.232462
v 0.393243 0.556574 0.230337
v 0.220518 0.460271 0.270846
vt 0.118879 0.770457
vt 0.410048 0.057594
vt 0.410048 0.863370
vt 0.834003 0.598529
vt 0.229543 0.924668
vt 0.130008 0.000500
vt 0.605800 0.000500
vt 0.869992 0.000500
vt 0.118879 0.924668
vt 0.000500 0.000500
vt 0.410048 0.965751
vt 0.054547 0.000500
vt 0.879453 0.000500
vt 0.834003 0.924668
vt 0.999500 0.000500
vt 0.165997 0.924668
vt 0.054547 0.000500
vt 0.945453 0.000500
vt 0.589952 0.999500
vt 0.881121 0.924668
vt 0.119415 0.778307
vt 0.442479 0.122890
vt 0.442479 0.912938
vt 0.808049 0.778307
vt 0.221693 0.899876
vt 0.170134 0.000500
vt 0.559935 0.000500
vt 0.893398 0.000500
vt 0.877110 0.954569
vt 0.442479 0.954569
vt 0.000500 0.000500
vt 0.102859 0.000500
vt 0.772142 0.000500
vt 0.122890 0.954569
vt 0.141707 0.000500
vt 0.778307 0.899876
vt 0.829866 0.000500
vt 0.191951 0.899876
vt 0.102859 0.000500
vt 0.538882 0.000500
vt 0.557521 0.999500
vt 0.897141 0.000500
vt 0.880585 0.899876
vt 0.102455 0.924383
vt 0.999500 0.965622
vt 0.007365 0.999500
vt 0.992635 0.999500
vt 0.000500 0.965622
vt 0.897545 0.924383
vt 0.102455 0.000500
vt 0.477021 0.000500
vt 0.797452 0.000500
vt 0.461117 0.965622
vt 0.102859 0.000500
vt 0.772142 0.000500
vt 0.236281 0.000500
vt 0.897545 0.000500
vt 0.078264 0.924383
vt 0.102859 0.000500
vt 0.897141 0.000500
vt 0.538882 0.999500
vt 0.945943 0.924383
vn 0.2280 0.9511 -0.2081
vn -0.0258 0.9923 -0.1211
vn 0.0179 0.9904 -0.1368
vn -0.2111 0.9761 -0.0515
vn 0.9611 0.0916 -0.2605
vn 0.9945 0.0640 -0.0830
vn 0.9401 0.1013 -0.3254
vn 0.8489 0.1276 -0.5128
vn 0.4458 0.2282 -0.8655
vn -0.2040 0.1993 -0.9585
vn -0.3257 0.0028 -0.9454
vn -0.8462 0.0869 -0.5257
vn -0.8135 0.1887 -0.5500
vn -0.9927 0.0944 0.0746
vn 0.1900 -0.0093 0.9817
vn 0.3207 0.0845 0.9434
vn 0.3005 0.0464 0.9526
vn 0.2507 -0.0253 0.9677
vn 0.4749 0.0443 0.8789
vn -0.4556 0.8852 0.0943
vn -0.0046 0.9944 0.1060
vn -0.0173 0.9942 0.1060
vn 0.4121 0.9060 0.0966
vn -0.9321 0.1935 0.3060
vn -0.9917 0.0487 -0.1188
vn -0.9967 0.0625 -0.0519
vn -0.9875 0.1151 0.1078
vn -0.8808 0.2294 0.4141
vn 0.0490 0.0586 0.9971
vn -0.6950 0.1844 0.6950
vn -0.3304 0.1290 0.9350
vn 0.1993 0.0278 0.9795
vn 0.8652 0.1603 0.4751
vn 0.9487 0.0931 0.3021
vn 0.8961 0.1393 0.4213
vn 0.9687 0.0687 0.2387
vn 0.3361 0.0517 -0.9404
vn 0.2242 0.0796 -0.9713
vn -0.0088 0.0604 -0.9981
vn -0.0089 0.0611 -0.9981
vn -0.2823 0.0457 -0.9582
vn -0.4070 0.0735 -0.9105
vn -0.8242 0.5132 0.2395
vn -0.8645 0.3707 0.3394
vn -0.4687 0.8787 0.0903
vn 0.4246 0.9006 0.0925
vn 0.8490 0.3629 0.3840
vn 0.8106 0.4933 0.3155
vn -0.9647 0.0193 -0.2626
vn -0.9976 0.0508 -0.0470
vn -0.9774 0.0916 0.1901
vn 0.1171 -0.0363 0.9924
vn 0.9575 0.0565 0.2829
vn 0.9700 0.0445 0.2390
vn 0.1453 -0.0147 -0.9893
vn -0.0603 0.0517 -0.9968
vn -0.0497 0.0416 -0.9979
vn 0.0042 -0.0023 -1.0000
vn -0.2462 0.0341 -0.9686
usemtl Material_Material_#6908
s 1
f 1/1/1 2/2/2 3/3/3
f 3/3/3 2/2/2 4/4/4
f 5/5/5 6/6/6 7/7/7
f 5/5/5 7/7/7 8/8/8
f 9/9/9 10/10/9 11/11/10
f 11/11/10 12/12/11 13/13/12
f 11/11/10 13/13/12 14/14/13
f 14/14/13 13/13/12 15/15/14
f 16/16/15 17/17/16 18/18/17
f 16/16/15 18/18/17 19/19/18
f 19/19/18 18/18/17 20/20/19
f 21/21/20 22/22/21 23/23/22
f 23/23/22 22/22/21 24/24/23
f 25/25/24 26/26/25 27/27/26
f 25/25/24 27/27/26 28/28/27
f 25/25/24 28/28/27 29/29/28
f 30/30/29 31/31/30 32/32/31
f 30/30/29 32/32/31 33/33/32
f 34/34/33 35/35/34 36/36/35
f 36/36/35 35/35/34 37/37/36
f 38/38/37 39/39/38 40/40/39
f 38/38/37 40/40/39 41/41/40
f 41/41/40 40/40/39 42/42/41
f 41/41/40 42/42/41 43/43/42
f 44/44/43 45/45/44 46/46/45
f 47/47/46 48/48/47 49/49/48
f 44/44/43 50/50/49 51/51/50
f 44/44/43 51/51/50 52/52/51
f 44/44/43 52/52/51 45/45/44
f 53/53/52 54/54/52 55/55/52
f 48/48/47 56/56/53 49/49/48
f 49/49/48 56/56/53 57/57/54
f 58/58/55 59/59/56 60/60/57
f 58/58/55 60/60/57 61/61/58
f 61/61/58 60/60/57 62/62/59
