# Blender v2.79 (sub 0) OBJ File: ''
# www.blender.org
mtllib ex_nord_win_02.mtl
o nifid_16-matrix_Tri_Ex_nord_win_02_3-lib
v -0.415137 0.324580 0.281697
v -0.522660 0.222150 0.281697
v -0.415137 0.222150 0.281697
v -0.522660 0.324580 0.281697
v -0.415137 0.222150 0.281697
v -0.522660 0.179090 0.169023
v -0.415137 0.179090 0.169023
v -0.522660 0.222150 0.281697
v -0.415137 0.367995 0.169023
v -0.522660 0.367995 0.169023
v -0.434653 -0.476795 0.281697
v -0.542175 -0.579225 0.281697
v -0.434653 -0.579225 0.281697
v -0.542175 -0.476795 0.281697
v -0.434653 -0.579225 0.281697
v -0.542175 -0.622285 0.169023
v -0.434653 -0.622285 0.169023
v -0.542175 -0.579225 0.281697
v -0.434653 -0.433380 0.169023
v -0.542175 -0.433380 0.169023
vt 1.000000 0.000000
vt 0.000000 1.000000
vt 1.000000 1.000000
vt 0.000000 0.000000
vt 1.000000 0.000000
vt 0.000000 1.000000
vt 1.000000 1.000000
vt 0.000000 0.000000
vt 1.000000 1.000000
vt 0.000000 1.000000
vt 1.000000 0.000000
vt 0.000000 1.000000
vt 1.000000 1.000000
vt 0.000000 0.000000
vt 1.000000 0.000000
vt 0.000000 1.000000
vt 1.000000 1.000000
vt 0.000000 0.000000
vt 1.000000 1.000000
vt 0.000000 1.000000
vn 0.0000 0.5659 0.8245
vn 0.0000 0.0000 1.0000
vn 0.0000 -0.9341 0.3570
vn 0.0000 0.9331 0.3595
usemtl Material_.003
s 1
f 1/1/1 2/2/2 3/3/2
f 2/2/2 1/1/1 4/4/1
f 5/5/3 6/6/3 7/7/3
f 6/6/3 5/5/3 8/8/3
f 4/4/1 9/9/4 10/10/4
f 9/9/4 4/4/1 1/1/1
f 11/11/1 12/12/2 13/13/2
f 12/12/2 11/11/1 14/14/1
f 15/15/3 16/16/3 17/17/3
f 16/16/3 15/15/3 18/18/3
f 14/14/1 19/19/4 20/20/4
f 19/19/4 14/14/1 11/11/1
o nifid_11-matrix_Tri_Ex_nord_win_02_2-lib
v 0.904013 0.226294 0.188980
v 0.820180 0.129990 -0.418068
v 0.495761 0.182861 0.298372
v 0.915471 0.129990 0.388255
v 0.528315 -0.944901 -0.436667
v 0.518580 -0.966618 0.134878
v 0.626940 -0.988335 0.399852
v 0.915471 0.129990 0.388255
v 0.924011 -0.944901 0.420129
v 0.954723 -0.944901 0.366934
v 0.742854 -0.988335 -0.444065
v 0.954723 -0.944901 0.366934
v 0.742854 -0.988335 -0.444065
v 0.518580 -0.966618 0.134878
v 0.912770 -0.988335 0.378175
v 0.742854 -0.988335 -0.444065
v 0.912770 -0.988335 0.378175
v 0.904013 0.939037 0.188981
v 0.820180 0.842733 -0.418068
v 0.495761 0.895604 0.298372
v 0.915471 0.842733 0.388255
v 0.495761 0.895604 0.298372
v 0.820180 0.842733 -0.418068
v 0.594242 0.204897 -0.381055
v 0.518580 0.204897 0.134878
v 0.626940 0.183180 0.399852
v 0.915471 0.842733 0.388255
v 0.495761 0.895604 0.298372
v 0.626940 0.183180 0.399852
v 0.924011 0.226613 0.420129
v 0.954723 0.226613 0.366934
v 0.915471 0.842733 0.388255
v 0.924011 0.226613 0.420129
v 0.825540 0.183180 -0.398066
v 0.904013 0.939037 0.188981
v 0.820180 0.842733 -0.418068
v 0.924011 0.226613 0.420129
v 0.626940 0.183180 0.399852
v 0.912770 0.183180 0.378175
v 0.825540 0.183180 -0.398066
v 0.912770 0.183180 0.378175
v 0.594242 0.204897 -0.381055
v 0.518580 0.204897 0.134878
v -0.539110 0.924611 0.188980
v -0.622942 0.828307 -0.418068
v -0.947362 0.881178 0.298372
v -0.527651 0.748149 0.388255
v -0.947362 0.881178 0.298372
v -0.622942 0.828307 -0.418068
v -0.848881 -0.088554 -0.443806
v -0.924543 -0.088554 0.134878
v -0.816183 -0.110270 0.399852
v -0.527651 0.748149 0.388255
v -0.947362 0.881178 0.298372
v -0.816183 -0.110270 0.399852
v -0.519112 -0.066837 0.420129
v -0.488399 -0.066837 0.366934
v -0.527651 0.748149 0.388255
v -0.519112 -0.066837 0.420129
v -0.617583 -0.110270 -0.431945
v -0.539110 0.924611 0.188980
v -0.622942 0.828307 -0.418068
v -0.519112 -0.066837 0.420129
v -0.816183 -0.110270 0.399852
v -0.530353 -0.110270 0.378175
v -0.617583 -0.110270 -0.431945
v -0.530353 -0.110270 0.378175
v -0.848881 -0.088554 -0.443806
v -0.924543 -0.088554 0.134878
v -0.743866 -0.983789 0.437800
v -0.908357 -0.931503 0.367913
v -0.880395 -0.943916 -0.429127
v -0.546940 -0.947695 0.431846
v -0.916554 -0.114334 0.206825
v -0.908357 -0.931503 0.367913
v -0.901495 -0.113939 0.371509
v -0.861917 -0.109969 -0.387531
v -0.880395 -0.943916 -0.429127
v -0.546940 -0.947695 0.431846
v -0.880395 -0.943916 -0.429127
v -0.573014 -0.105338 -0.424645
v -0.525803 -0.200997 0.437576
v -0.576101 -0.202314 0.472807
v -0.901495 -0.113939 0.371509
v -0.546940 -0.947695 0.431846
v -0.576101 -0.202314 0.472807
v -0.743866 -0.983789 0.437800
v -0.908357 -0.931503 0.367913
v -0.569698 -0.105251 0.430033
v -0.901495 -0.113939 0.371509
v -0.569698 -0.105251 0.430033
v -0.573014 -0.105338 -0.424645
v -0.576101 -0.202314 0.472807
v -0.916554 -0.114334 0.206825
v -0.861917 -0.109969 -0.387531
v 0.815908 -1.070175 0.468529
v -0.884457 -1.070175 0.468529
v -0.884457 -1.143477 0.468529
v 0.815908 -1.143477 0.468529
v -0.954721 -1.106826 0.339498
v -0.884457 -0.941143 0.339498
v -0.884457 -1.223014 0.339498
v 0.891267 -1.225021 0.339498
v 0.947919 -1.106826 0.339498
v 0.891267 -0.985601 0.339498
v -0.954721 -1.106826 -0.472808
v -0.884457 -0.941143 0.339498
v -0.884457 -0.941143 -0.472808
v -0.954721 -1.106826 0.339498
v -0.884457 -1.223014 -0.472807
v -0.884457 -1.223014 0.339498
v -0.884457 -1.223014 -0.472807
v 0.891267 -1.225022 -0.472808
v 0.947919 -1.106826 -0.472808
v 0.891267 -1.225021 0.339498
v 0.891267 -1.225022 -0.472808
v 0.947919 -1.106826 0.339498
v 0.891267 -0.985602 -0.472808
v 0.891267 -0.985601 0.339498
v 0.891267 -0.985602 -0.472808
v -0.884457 -0.941143 -0.472808
v 0.815908 1.001716 0.468530
v -0.941756 1.012585 0.468530
v -0.970814 0.939283 0.468530
v 0.815908 0.883149 0.468530
v -1.041078 0.975934 0.339498
v -0.920721 1.141617 0.339498
v -0.970814 0.803612 0.339498
v 0.891267 0.801605 0.339498
v 0.947919 0.919800 0.339498
v 0.891267 1.086291 0.339498
v -1.041078 0.975934 -0.472807
v -0.920721 1.141617 0.339498
v -0.920721 1.141617 -0.472807
v -1.041078 0.975934 0.339498
v -0.970814 0.803612 -0.472807
v -0.970814 0.803612 0.339498
v -0.970814 0.803612 -0.472807
v 0.891267 0.801604 -0.472807
v 0.947919 0.919800 -0.472807
v 0.891267 0.801605 0.339498
v 0.891267 0.801604 -0.472807
v 0.947919 0.919800 0.339498
v 0.891267 1.086290 -0.472808
v 0.891267 1.086291 0.339498
v 0.891267 1.086290 -0.472808
v -0.920721 1.141617 -0.472807
vt 0.012486 0.715454
vt 0.133809 0.588917
vt 0.487684 0.669437
vt -0.129384 0.591499
vt 0.335760 0.350113
vt 0.375768 0.346127
vt 0.627187 0.242256
vt 0.870616 0.591499
vt 0.857295 0.361881
vt 0.893397 0.361941
vt 0.124604 0.303901
vt -0.106603 0.361941
vt 0.242655 0.285768
vt 0.352615 0.284790
vt 0.875396 0.303901
vt 1.124600 0.303901
vt -0.124604 0.303901
vt 0.355649 0.165596
vt 0.282659 0.599700
vt 0.000200 0.087369
vt 0.365624 0.023093
vt 0.341754 0.552137
vt 0.000200 0.494239
vt 0.017845 0.024082
vt 0.263810 0.024082
vt 0.390133 0.000300
vt 0.365624 0.494239
vt 0.000200 0.552137
vt 0.114412 0.000300
vt 0.373060 0.047863
vt 0.025560 0.047863
vt 0.015395 0.494239
vt 0.000200 0.047863
vt 0.390264 0.000300
vt 0.110397 0.599700
vt 0.399800 0.494239
vt 0.026940 0.000300
vt 0.285588 0.014800
vt 0.036727 0.030301
vt 0.112675 0.585396
vt 0.020201 0.000300
vt 0.314056 0.573232
vt 0.379932 0.204285
vt 0.444560 0.133893
vt 0.353324 0.484869
vt 0.000250 0.070646
vt 0.457031 0.018678
vt 0.429354 0.472166
vt 0.015131 0.438589
vt 0.000250 0.014042
vt 0.334827 0.014042
vt 0.488027 0.000250
vt 0.457031 0.438589
vt 0.000250 0.472166
vt 0.143015 0.000250
vt 0.466325 0.027834
vt 0.031005 0.027834
vt 0.018678 0.438589
vt 0.000250 0.027834
vt 0.492892 0.000250
vt 0.133893 0.499750
vt 0.484869 0.438589
vt 0.033675 0.000250
vt 0.356985 0.011973
vt 0.045909 0.024506
vt 0.140844 0.492892
vt 0.024506 0.000250
vt 0.392571 0.499750
vt 0.474916 0.165173
vt 0.293584 0.019637
vt 0.499750 0.058341
vt 0.464820 0.499750
vt 0.041334 0.022934
vt 0.147553 0.002792
vt 0.058341 0.450702
vt 0.056349 0.002792
vt 0.476714 0.000250
vt 0.499750 0.462095
vt 0.477066 0.416257
vt 0.000250 0.462095
vt 0.002732 0.002792
vt 0.480239 0.040448
vt 0.499750 0.040448
vt 0.473967 0.002792
vt 0.041334 0.416257
vt 0.063864 0.040448
vt 0.293584 0.499750
vt 0.499750 0.450702
vt 0.476062 0.002792
vt 0.026033 0.056349
vt 0.445671 0.023938
vt 0.441478 0.497268
vt 0.436136 0.000250
vt 0.006986 0.147553
vt 0.076186 0.476714
vt 0.493729 0.136835
vt 0.493729 1.886710
vt 0.543325 1.886710
vt 0.543325 0.136835
vt 0.524697 1.959020
vt 0.376532 1.886710
vt 0.626861 1.886710
vt 0.628467 0.059281
vt 0.524697 0.000979
vt 0.413583 0.059281
vt 0.148425 0.469765
vt 0.359820 0.000235
vt 0.359820 0.469765
vt 0.148425 0.000235
vt 0.000180 0.469765
vt 0.000180 0.000235
vt 1.415050 1.886710
vt 1.413800 0.059281
vt 0.389805 0.499750
vt 0.000201 0.000250
vt 0.000203 0.499750
vt 0.389804 0.000250
vt 0.000203 0.499750
vt 0.000201 0.000250
vt -0.437168 0.059281
vt -0.408802 1.886710
vt 0.493729 0.136835
vt 0.493729 1.886710
vt 0.543325 1.886710
vt 0.543325 0.136835
vt 0.524697 1.959020
vt 0.376532 1.886710
vt 0.626861 1.886710
vt 0.628467 0.059281
vt 0.524697 0.000979
vt 0.413583 0.059281
vt 0.148425 0.469765
vt 0.359820 0.000235
vt 0.359820 0.469765
vt 0.148425 0.000235
vt 0.000180 0.469765
vt 0.000180 0.000235
vt 1.415050 1.886710
vt 1.413800 0.059281
vt 0.389805 0.499750
vt 0.000201 0.000250
vt 0.000203 0.499750
vt 0.389804 0.000250
vt 0.000203 0.499750
vt 0.000201 0.000250
vt -0.437168 0.059281
vt -0.408802 1.886710
vn 0.6537 0.7564 0.0235
vn 0.2410 0.6372 -0.7320
vn -0.6942 0.6026 0.3936
vn 0.8781 0.4648 0.1131
vn -0.7880 -0.5990 -0.1422
vn -0.9842 -0.0439 0.1717
vn -0.4464 -0.6155 0.6495
vn -0.1512 0.0572 0.9868
vn 0.4492 -0.3078 0.8387
vn 0.8423 -0.2325 0.4863
vn 0.9792 -0.0388 -0.1989
vn 0.9102 -0.3516 -0.2189
vn -0.1910 -0.9809 -0.0372
vn -0.1551 -0.9876 -0.0230
vn 0.2234 -0.8699 0.4397
vn 0.0000 -1.0000 0.0000
vn 0.6930 -0.7065 -0.1432
vn -0.0724 0.9897 0.1229
vn -0.1408 0.9806 -0.1361
vn -0.0851 0.9934 0.0768
vn 0.0205 0.9006 0.4341
vn -0.9823 0.1059 -0.1546
vn -0.8658 0.2827 -0.4129
vn -0.9420 0.1572 -0.2964
vn -0.9949 -0.0532 0.0858
vn -0.9225 -0.1175 0.3676
vn -0.1662 0.0900 0.9820
vn -0.1959 0.1028 0.9752
vn -0.1206 0.0702 0.9902
vn -0.0754 0.0504 0.9958
vn 0.9401 -0.3052 0.1517
vn 0.9960 0.0063 -0.0889
vn 0.8442 -0.2232 0.4874
vn 0.9898 -0.0111 -0.1418
vn 0.9950 -0.0290 -0.0956
vn 0.9905 0.0039 -0.1374
vn 0.0539 -0.7009 0.7112
vn -0.0331 -0.9974 0.0643
vn 0.0307 -0.9136 0.4054
vn -0.0742 -0.9971 -0.0185
vn 0.7297 -0.6717 0.1278
vn -0.1006 -0.9946 -0.0234
vn -0.1459 -0.9890 -0.0214
vn -0.0387 0.9698 0.2405
vn -0.0488 0.9774 0.2058
vn 0.0964 0.7479 0.6567
vn -0.9723 0.1122 -0.2050
vn -0.8804 0.2286 -0.4155
vn -0.9608 0.1001 -0.2583
vn -0.9935 -0.0412 0.1058
vn -0.9247 -0.0843 0.3712
vn -0.1661 0.0691 0.9837
vn -0.1858 0.0757 0.9796
vn -0.1069 0.0493 0.9930
vn -0.0736 0.0382 0.9966
vn 0.9371 -0.3122 0.1559
vn 0.9960 -0.0002 -0.0889
vn 0.8433 -0.2277 0.4869
vn 0.9900 -0.0103 -0.1406
vn 0.9946 -0.0136 -0.1031
vn 0.9904 0.0077 -0.1380
vn -0.0331 -0.9973 0.0650
vn 0.0307 -0.9138 0.4049
vn -0.0741 -0.9971 -0.0177
vn 0.7297 -0.6712 0.1300
vn -0.0983 -0.9949 -0.0218
vn -0.1501 -0.9885 -0.0196
vn -0.0046 -0.9990 -0.0452
vn -0.3045 -0.9525 0.0041
vn -0.0556 -0.9977 -0.0371
vn 0.1776 -0.9814 -0.0731
vn -0.9998 -0.0123 -0.0117
vn -0.9992 0.0039 -0.0391
vn -0.9958 0.0079 0.0910
vn -0.9979 -0.0025 -0.0641
vn -0.9991 0.0239 -0.0354
vn 0.9705 -0.1787 -0.1619
vn 0.8825 -0.3216 -0.3432
vn 0.9652 -0.1545 -0.2107
vn 0.8873 0.1758 0.4263
vn 0.5666 0.1296 0.8137
vn -0.2728 -0.0312 0.9615
vn -0.0573 0.0478 0.9972
vn -0.3125 -0.0643 0.9477
vn -0.1548 0.0471 0.9868
vn -0.3912 -0.0008 0.9203
vn 0.8799 0.4208 0.2207
vn -0.0504 0.9890 0.1388
vn -0.1209 0.8169 0.5640
vn -0.0190 0.9998 0.0039
vn -0.1690 0.4068 0.8977
vn -0.0247 0.9997 0.0008
vn -0.0153 0.9998 0.0059
vn 0.3168 0.3964 0.8617
vn -0.4678 0.3339 0.8183
vn -0.4545 -0.4245 0.7830
vn 0.3098 -0.4113 0.8572
vn -0.9187 -0.0497 0.3917
vn -0.2066 0.8864 0.4142
vn -0.2405 -0.9200 0.3094
vn 0.2731 -0.8669 0.4169
vn 0.7399 -0.0027 0.6727
vn 0.2877 0.8589 0.4236
vn -0.9974 -0.0713 0.0000
vn -0.9206 0.3904 0.0000
vn -0.8557 -0.5175 0.0000
vn -0.0011 -1.0000 0.0000
vn 1.0000 -0.0049 0.0000
vn 0.9018 -0.4322 0.0000
vn 0.9059 0.4234 0.0000
vn 0.0250 0.9997 0.0000
vn 0.3282 0.3966 0.8573
vn -0.3680 0.4179 0.8306
vn -0.5155 -0.2300 0.8254
vn 0.3094 -0.4113 0.8574
vn -0.8817 0.1199 0.4563
vn -0.1635 0.8915 0.4225
vn -0.2231 -0.8776 0.4244
vn 0.2732 -0.8669 0.4169
vn 0.7468 -0.0485 0.6633
vn 0.3052 0.8551 0.4190
vn -0.9927 0.1202 0.0000
vn -0.8090 0.5877 0.0000
vn -0.9260 -0.3775 0.0000
vn 0.9982 -0.0595 0.0000
vn 0.9467 0.3221 0.0000
vn 0.0305 0.9995 0.0000
usemtl Material_.002
s 1
f 21/21/5 22/22/6 23/23/7
f 24/24/8 21/21/5 23/23/7
f 23/23/7 22/22/6 25/25/9
f 26/26/10 23/23/7 25/25/9
f 27/27/11 23/23/7 26/26/10
f 28/28/12 23/23/7 27/27/11
f 29/29/13 28/28/12 27/27/11
f 30/30/14 28/28/12 29/29/13
f 31/31/15 24/24/8 32/32/16
f 21/21/5 24/24/8 31/31/15
f 22/22/6 21/21/5 31/31/15
f 25/25/9 33/33/17 34/34/18
f 29/29/13 27/27/11 35/35/19
f 36/36/20 35/35/19 27/27/11
f 30/30/14 29/29/13 35/35/19
f 31/31/15 32/32/16 37/37/21
f 33/33/17 27/27/11 34/34/18
f 38/38/22 39/39/23 40/40/24
f 41/41/25 38/38/22 40/40/24
f 42/42/26 43/43/27 44/44/28
f 45/45/29 42/42/26 44/44/28
f 46/46/30 42/42/26 45/45/29
f 47/47/31 48/48/32 49/49/33
f 50/50/34 47/47/31 49/49/33
f 51/51/35 52/52/36 53/53/37
f 54/54/38 52/52/36 51/51/35
f 55/55/39 52/52/36 54/54/38
f 56/56/40 55/55/39 54/54/38
f 57/57/41 58/58/42 59/59/43
f 60/60/44 59/59/43 58/58/42
f 51/51/35 53/53/37 61/61/45
f 54/54/38 51/51/35 61/61/45
f 62/62/46 58/58/42 63/63/47
f 62/62/46 60/60/44 58/58/42
f 64/64/48 65/65/23 66/66/49
f 67/67/50 64/64/48 66/66/49
f 68/68/51 69/69/52 70/70/53
f 71/71/54 68/68/51 70/70/53
f 72/72/55 68/68/51 71/71/54
f 73/73/56 74/74/57 75/75/58
f 76/76/59 73/73/56 75/75/58
f 77/77/60 78/78/61 79/79/62
f 80/80/63 78/78/61 77/77/60
f 81/81/64 78/78/61 80/80/63
f 82/82/65 81/81/64 80/80/63
f 83/83/41 84/84/66 85/85/67
f 86/86/68 85/85/67 84/84/66
f 77/77/60 79/79/62 87/87/69
f 80/80/63 77/77/60 87/87/69
f 88/88/70 84/84/66 89/89/71
f 88/88/70 86/86/68 84/84/66
f 90/90/72 91/91/73 92/92/74
f 93/93/75 90/90/72 92/92/74
f 94/94/76 95/95/77 96/96/78
f 97/97/79 95/95/77 94/94/76
f 98/98/80 95/95/77 97/97/79
f 99/99/81 100/100/82 101/101/83
f 102/102/84 99/99/81 101/101/83
f 103/103/85 99/99/81 102/102/84
f 104/104/86 105/105/87 106/106/88
f 107/107/89 105/105/87 104/104/86
f 108/108/90 107/107/89 104/104/86
f 102/102/84 101/101/83 109/109/91
f 110/110/92 111/111/93 112/112/94
f 103/103/85 102/102/84 109/109/91
f 110/110/92 113/113/95 111/111/93
f 114/114/96 112/112/94 115/115/97
f 114/114/96 110/110/92 112/112/94
f 116/116/98 117/117/99 118/118/100
f 118/118/100 119/119/101 116/116/98
f 120/120/102 117/117/99 121/121/103
f 118/118/100 117/117/99 120/120/102
f 122/122/104 118/118/100 120/120/102
f 119/119/101 118/118/100 122/122/104
f 122/122/104 123/123/105 119/119/101
f 124/124/106 119/119/101 123/123/105
f 116/116/98 119/119/101 124/124/106
f 125/125/107 116/116/98 124/124/106
f 126/126/108 127/127/109 128/128/109
f 129/129/108 127/127/109 126/126/108
f 130/130/110 129/129/108 126/126/108
f 131/131/110 129/129/108 130/130/110
f 123/123/105 122/122/104 132/132/111
f 132/132/111 133/133/111 123/123/105
f 134/134/112 135/135/113 136/136/113
f 137/137/112 135/135/113 134/134/112
f 138/138/114 137/137/112 134/134/112
f 139/139/114 137/137/112 138/138/114
f 116/116/98 125/125/107 121/121/103
f 121/121/103 117/117/99 116/116/98
f 125/125/107 140/140/115 141/141/115
f 141/141/115 121/121/103 125/125/107
f 142/142/116 143/143/117 144/144/118
f 144/144/118 145/145/119 142/142/116
f 146/146/120 143/143/117 147/147/121
f 144/144/118 143/143/117 146/146/120
f 148/148/122 144/144/118 146/146/120
f 145/145/119 144/144/118 148/148/122
f 148/148/122 149/149/123 145/145/119
f 150/150/124 145/145/119 149/149/123
f 142/142/116 145/145/119 150/150/124
f 151/151/125 142/142/116 150/150/124
f 152/152/126 153/153/127 154/154/127
f 155/155/126 153/153/127 152/152/126
f 156/156/128 155/155/126 152/152/126
f 157/157/128 155/155/126 156/156/128
f 149/149/123 148/148/122 158/158/111
f 158/158/111 159/159/111 149/149/123
f 160/160/129 161/161/113 162/162/113
f 163/163/129 161/161/113 160/160/129
f 164/164/130 163/163/129 160/160/129
f 165/165/130 163/163/129 164/164/130
f 142/142/116 151/151/125 147/147/121
f 147/147/121 143/143/117 142/142/116
f 151/151/125 166/166/131 167/167/131
f 167/167/131 147/147/121 151/151/125
o nifid_6-matrix_Tri_Ex_nord_win_02_1-lib
v 0.809172 0.324580 0.281697
v -0.415137 0.222150 0.281697
v 0.809172 0.222150 0.281697
v -0.415137 0.324580 0.281697
v 0.809172 0.222150 0.281697
v -0.415137 0.179090 0.169023
v 0.809172 0.179090 0.169023
v -0.415137 0.222150 0.281697
v -0.415137 0.324580 0.281697
v 0.809172 0.367995 0.169023
v -0.415137 0.367995 0.169023
v 0.809172 0.324580 0.281697
v 0.795740 -0.476795 0.281697
v -0.434653 -0.579225 0.281697
v 0.795740 -0.579225 0.281697
v -0.434653 -0.476795 0.281697
v 0.795740 -0.579225 0.281697
v -0.434653 -0.622285 0.169023
v 0.795740 -0.622285 0.169023
v -0.434653 -0.579225 0.281697
v -0.434653 -0.476795 0.281697
v 0.795740 -0.433380 0.169023
v -0.434653 -0.433380 0.169023
v 0.795740 -0.476795 0.281697
vt 1.000000 0.000000
vt 0.000000 1.000000
vt 1.000000 1.000000
vt 0.000000 0.000000
vt 1.000000 0.000000
vt 0.000000 1.000000
vt 1.000000 1.000000
vt 0.000000 0.000000
vt 1.000000 0.000000
vt 0.000000 1.000000
vt 1.000000 1.000000
vt 0.000000 0.000000
vt 1.000000 0.000000
vt 0.000000 1.000000
vt 1.000000 1.000000
vt 0.000000 0.000000
vt 1.000000 0.000000
vt 0.000000 1.000000
vt 1.000000 1.000000
vt 0.000000 0.000000
vt 1.000000 0.000000
vt 0.000000 1.000000
vt 1.000000 1.000000
vt 0.000000 0.000000
vn 0.0000 0.0000 1.0000
vn 0.0000 -0.9341 0.3570
vn 0.0000 0.9331 0.3595
usemtl Material_.001
s 1
f 168/168/132 169/169/132 170/170/132
f 169/169/132 168/168/132 171/171/132
f 172/172/133 173/173/133 174/174/133
f 173/173/133 172/172/133 175/175/133
f 176/176/134 177/177/134 178/178/134
f 177/177/134 176/176/134 179/179/134
f 180/180/132 181/181/132 182/182/132
f 181/181/132 180/180/132 183/183/132
f 184/184/133 185/185/133 186/186/133
f 185/185/133 184/184/133 187/187/133
f 188/188/134 189/189/134 190/190/134
f 189/189/134 188/188/134 191/191/134
o nifid_1-matrix_Tri_Ex_nord_win_02_0-lib
v 0.782079 -1.105327 0.246771
v -0.775914 0.845987 0.246771
v -0.775914 -1.105327 0.246771
v 0.782079 0.845987 0.246771
vt 0.999501 0.000500
vt 0.000500 0.999500
vt 0.000499 0.000500
vt 0.999501 0.999500
vn 0.0000 0.0000 1.0000
usemtl Material_
s off
f 192/192/135 193/193/135 194/194/135
f 193/193/135 192/192/135 195/195/135
