# Blender v2.79 (sub 0) OBJ File: ''
# www.blender.org
mtllib ex_nord_door_01.mtl
o nifid_11-matrix_Tri_Ex_nord_door_01_2-lib
v -0.983029 0.696292 -0.256138
v -0.687340 0.696292 -0.256138
v -0.687340 0.977975 -0.256139
v -0.983029 0.977975 -0.256138
v -0.983029 0.577876 -0.565989
v -0.687340 0.577876 -0.565989
v -0.687340 0.696292 -0.256138
v -0.983029 0.696292 -0.256138
v -0.687340 1.097365 -0.565989
v -0.983029 1.097365 -0.565989
v -0.983029 -1.507489 -0.256138
v -0.687340 -1.507489 -0.256138
v -0.687340 -1.225807 -0.256139
v -0.983029 -1.225807 -0.256138
v -0.983029 -1.625905 -0.565989
v -0.687340 -1.625905 -0.565989
v -0.687340 -1.507489 -0.256138
v -0.983029 -1.507489 -0.256138
v -0.687340 -1.106417 -0.565989
v -0.983029 -1.106417 -0.565989
vt 0.000000 1.000000
vt 1.000000 1.000000
vt 1.000000 0.000000
vt 0.000000 0.000000
vt 0.000000 1.000000
vt 1.000000 1.000000
vt 1.000000 0.000000
vt 0.000000 0.000000
vt 1.000000 1.000000
vt 0.000000 1.000000
vt 0.000000 1.000000
vt 1.000000 1.000000
vt 1.000000 0.000000
vt 0.000000 0.000000
vt 0.000000 1.000000
vt 1.000000 1.000000
vt 1.000000 0.000000
vt 0.000000 0.000000
vt 1.000000 1.000000
vt 0.000000 1.000000
vn 0.0000 0.0000 1.0000
vn 0.0000 0.5659 0.8245
vn 0.0000 -0.9341 0.3570
vn 0.0000 0.9331 0.3595
usemtl Material_Material_#6909
s 1
f 1/1/1 2/2/1 3/3/2
f 3/3/2 4/4/2 1/1/1
f 5/5/3 6/6/3 7/7/3
f 7/7/3 8/8/3 5/5/3
f 9/9/4 10/10/4 4/4/2
f 4/4/2 3/3/2 9/9/4
f 11/11/1 12/12/1 13/13/2
f 13/13/2 14/14/2 11/11/1
f 15/15/3 16/16/3 17/17/3
f 17/17/3 18/18/3 15/15/3
f 19/19/4 20/20/4 14/14/2
f 14/14/2 13/13/2 19/19/4
o nifid_6-matrix_Tri_Ex_nord_door_01_1-lib
v -0.687340 0.696292 -0.256138
v 1.693242 0.696292 -0.256138
v 1.693242 0.977975 -0.256138
v -0.687340 0.977975 -0.256139
v -0.687340 0.577876 -0.565989
v 1.693242 0.577876 -0.565989
v 1.693242 0.696292 -0.256138
v -0.687340 0.696292 -0.256138
v 1.693242 1.097365 -0.565989
v -0.687340 1.097365 -0.565989
v -0.687340 0.977975 -0.256139
v 1.693242 0.977975 -0.256138
v 1.238765 -0.512896 -0.355612
v 1.218373 -0.380288 -0.275483
v 1.334070 -0.380288 -0.275483
v 1.313676 -0.512896 -0.355612
v 1.238765 -0.512897 -0.309167
v 1.313676 -0.512896 -0.309167
v 1.334070 -0.380288 -0.204306
v 1.218373 -0.380288 -0.204306
v 1.238765 -0.648562 -0.355612
v 1.313676 -0.648562 -0.355612
v 1.313676 -0.624656 -0.326515
v 1.238765 -0.624656 -0.326515
v 1.313676 -0.512896 -0.355612
v 1.334070 -0.380288 -0.275483
v 1.334070 -0.380288 -0.204306
v 1.313676 -0.512896 -0.309167
v 1.317959 0.107216 -0.356884
v 1.234483 0.107216 -0.356884
v 1.234483 0.080935 -0.324629
v 1.317959 0.080935 -0.324629
v 1.218373 -0.380288 -0.275483
v 1.238765 -0.512896 -0.355612
v 1.238765 -0.512897 -0.309167
v 1.218373 -0.380288 -0.204306
v 1.238765 -0.512896 -0.355612
v 1.313676 -0.512896 -0.355612
v 1.313676 -0.648562 -0.355612
v 1.313676 -0.648562 -0.355612
v 1.238765 -0.648562 -0.355612
v 1.238765 -0.512896 -0.355612
v 1.313676 -0.512896 -0.309167
v 1.238765 -0.512897 -0.309167
v 1.238765 -0.624656 -0.326515
v 1.238765 -0.624656 -0.326515
v 1.313676 -0.624656 -0.326515
v 1.313676 -0.512896 -0.309167
v 1.313676 -0.512896 -0.355612
v 1.313676 -0.512896 -0.309167
v 1.313676 -0.624656 -0.326515
v 1.313676 -0.624656 -0.326515
v 1.313676 -0.648562 -0.355612
v 1.313676 -0.512896 -0.355612
v 1.238765 -0.512897 -0.309167
v 1.238765 -0.512896 -0.355612
v 1.238765 -0.648562 -0.355612
v 1.238765 -0.648562 -0.355612
v 1.238765 -0.624656 -0.326515
v 1.238765 -0.512897 -0.309167
v 1.334070 -0.380288 -0.275483
v 1.218373 -0.380288 -0.275483
v 1.218373 -0.146752 -0.275483
v 1.334070 -0.146752 -0.275483
v 1.218373 -0.380288 -0.204306
v 1.334070 -0.380288 -0.204306
v 1.334070 -0.146752 -0.204306
v 1.218373 -0.146752 -0.204306
v 1.334070 -0.380288 -0.204306
v 1.334070 -0.380288 -0.275483
v 1.334070 -0.146752 -0.275483
v 1.334070 -0.146752 -0.275483
v 1.334070 -0.146752 -0.204306
v 1.334070 -0.380288 -0.204306
v 1.218373 -0.380288 -0.275483
v 1.218373 -0.380288 -0.204306
v 1.218373 -0.146752 -0.204306
v 1.218373 -0.146752 -0.204306
v 1.218373 -0.146752 -0.275483
v 1.218373 -0.380288 -0.275483
v 1.334070 -0.146752 -0.275483
v 1.218373 -0.146752 -0.275483
v 1.234483 -0.040765 -0.356884
v 1.234483 -0.040765 -0.356884
v 1.317959 -0.040765 -0.356884
v 1.334070 -0.146752 -0.275483
v 1.218373 -0.146752 -0.275483
v 1.218373 -0.146752 -0.204306
v 1.234483 -0.040765 -0.305530
v 1.234483 -0.040765 -0.356884
v 1.218373 -0.146752 -0.204306
v 1.334070 -0.146752 -0.204306
v 1.317959 -0.040765 -0.305530
v 1.234483 -0.040765 -0.305530
v 1.334070 -0.146752 -0.204306
v 1.334070 -0.146752 -0.275483
v 1.317959 -0.040765 -0.356884
v 1.317959 -0.040765 -0.356884
v 1.317959 -0.040765 -0.305530
v 1.334070 -0.146752 -0.204306
v 1.317959 -0.040765 -0.356884
v 1.234483 -0.040765 -0.356884
v 1.234483 0.107216 -0.356884
v 1.234483 0.107216 -0.356884
v 1.317959 0.107216 -0.356884
v 1.317959 -0.040765 -0.356884
v 1.234483 -0.040765 -0.356884
v 1.234483 -0.040765 -0.305530
v 1.234483 0.080935 -0.324629
v 1.234483 0.080935 -0.324629
v 1.234483 0.107216 -0.356884
v 1.234483 -0.040765 -0.356884
v 1.234483 -0.040765 -0.305530
v 1.317959 -0.040765 -0.305530
v 1.317959 0.080935 -0.324629
v 1.317959 0.080935 -0.324629
v 1.234483 0.080935 -0.324629
v 1.234483 -0.040765 -0.305530
v 1.317959 -0.040765 -0.305530
v 1.317959 -0.040765 -0.356884
v 1.317959 0.107216 -0.356884
v 1.317959 0.107216 -0.356884
v 1.317959 0.080935 -0.324629
v 1.317959 -0.040765 -0.305530
v -0.687340 -1.507489 -0.256138
v 1.693242 -1.507489 -0.256138
v 1.693242 -1.225807 -0.256138
v -0.687340 -1.225807 -0.256139
v -0.687340 -1.625905 -0.565989
v 1.693242 -1.625905 -0.565989
v 1.693242 -1.507489 -0.256138
v -0.687340 -1.507489 -0.256138
v 1.693242 -1.106417 -0.565989
v -0.687340 -1.106417 -0.565989
v -0.687340 -1.225807 -0.256139
v 1.693242 -1.225807 -0.256138
vt 0.843126 0.176582
vt 0.690274 0.000500
vt 0.690274 0.999499
vt 0.843126 0.823406
vt 0.843126 0.176582
vt 0.843126 0.823406
vt 0.690274 0.999499
vt 0.690274 0.000500
vt 0.999501 0.176582
vt 0.999501 0.823406
vt 0.971946 0.823406
vt 0.971946 0.176582
vt 0.843126 0.000499
vt 0.690274 0.529554
vt 0.690274 0.999500
vt 0.843126 0.307155
vt 0.000500 0.999500
vt 0.000499 0.000501
vt 0.042486 0.000501
vt 0.042486 0.999500
vt 0.690274 0.529554
vt 0.843126 0.000499
vt 0.843126 0.307155
vt 0.690274 0.999500
vt 0.843126 0.176582
vt 0.843126 0.823406
vt 0.999501 0.823406
vt 0.999501 0.823406
vt 0.999501 0.176582
vt 0.843126 0.176582
vt 0.843126 0.823406
vt 0.843126 0.176582
vt 0.971946 0.176582
vt 0.971946 0.176582
vt 0.971946 0.823406
vt 0.843126 0.823406
vt 0.843126 0.000499
vt 0.843126 0.307155
vt 0.971946 0.192616
vt 0.971946 0.192616
vt 0.999501 0.000499
vt 0.843126 0.000499
vt 0.843126 0.307155
vt 0.843126 0.000499
vt 0.999501 0.000499
vt 0.999501 0.000499
vt 0.971946 0.192616
vt 0.843126 0.307155
vt 0.690274 0.999499
vt 0.690274 0.000500
vt 0.421088 0.000501
vt 0.421088 0.999499
vt 0.690274 0.000500
vt 0.690274 0.999499
vt 0.421088 0.999499
vt 0.421088 0.000500
vt 0.690274 0.999500
vt 0.690274 0.529554
vt 0.421088 0.529554
vt 0.421088 0.529554
vt 0.421088 0.999500
vt 0.690274 0.999500
vt 0.690274 0.529554
vt 0.690274 0.999500
vt 0.421088 0.999501
vt 0.421088 0.999501
vt 0.421088 0.529555
vt 0.690274 0.529554
vt 0.421088 0.999499
vt 0.421088 0.000501
vt 0.287658 0.000501
vt 0.287658 0.000501
vt 0.287658 0.999500
vt 0.421088 0.999499
vt 0.421088 0.529555
vt 0.421088 0.999501
vt 0.287658 0.479315
vt 0.287658 0.009369
vt 0.421088 0.000500
vt 0.421088 0.999499
vt 0.287658 0.999500
vt 0.287658 0.000501
vt 0.421088 0.999500
vt 0.421088 0.529554
vt 0.287658 0.009369
vt 0.287658 0.009369
vt 0.287658 0.479315
vt 0.421088 0.999500
vt 0.287658 0.999500
vt 0.287658 0.000501
vt 0.000499 0.000501
vt 0.000499 0.000501
vt 0.000500 0.999500
vt 0.287658 0.999500
vt 0.287658 0.009369
vt 0.287658 0.479315
vt 0.042486 0.479315
vt 0.042486 0.479315
vt 0.000499 0.009369
vt 0.287658 0.009369
vt 0.287658 0.000501
vt 0.287658 0.999500
vt 0.042486 0.999500
vt 0.042486 0.999500
vt 0.042486 0.000501
vt 0.287658 0.000501
vt 0.287658 0.479315
vt 0.287658 0.009369
vt 0.000500 0.009369
vt 0.000500 0.009369
vt 0.042486 0.479315
vt 0.287658 0.479315
vt 0.000000 1.000000
vt 1.000000 1.000000
vt 1.000000 0.000000
vt 0.000000 0.000000
vt 0.000000 1.000000
vt 1.000000 1.000000
vt 1.000000 0.000000
vt 0.000000 0.000000
vt 0.000000 1.000000
vt 1.000000 1.000000
vt 1.000000 0.000000
vt 0.000000 0.000000
vt 0.000000 1.000000
vt 1.000000 1.000000
vt 1.000000 0.000000
vt 0.000000 0.000000
vt 0.000000 1.000000
vt 1.000000 1.000000
vt 1.000000 0.000000
vt 0.000000 0.000000
vt 0.000000 1.000000
vt 1.000000 1.000000
vt 1.000000 0.000000
vt 0.000000 0.000000
vn 0.0000 0.5172 -0.8559
vn 0.0000 -0.6203 0.7844
vn 0.0000 -0.7727 0.6348
vn 0.9884 -0.1520 0.0000
vn 0.0000 0.7752 0.6317
vn -0.9884 -0.1520 -0.0000
vn 0.0000 0.0000 -1.0000
vn 0.0000 -0.1534 0.9882
vn 1.0000 -0.0000 0.0000
vn -1.0000 0.0000 -0.0000
vn 0.0000 0.0000 1.0000
vn 0.0000 -0.6091 -0.7931
vn -0.9886 0.1503 0.0000
vn 0.0000 0.6907 0.7232
vn 0.9886 0.1503 0.0000
vn 0.0000 0.1550 0.9879
vn 0.0000 -0.9341 0.3570
vn 0.0000 0.9331 0.3595
usemtl Material_Material_#31
s off
f 33/21/5 34/22/5 35/23/5
f 35/23/5 36/24/5 33/21/5
f 37/25/6 38/26/6 39/27/6
f 39/27/6 40/28/6 37/25/6
f 41/29/7 42/30/7 43/31/7
f 43/31/7 44/32/7 41/29/7
f 45/33/8 46/34/8 47/35/8
f 47/35/8 48/36/8 45/33/8
f 49/37/9 50/38/9 51/39/9
f 51/39/9 52/40/9 49/37/9
f 53/41/10 54/42/10 55/43/10
f 55/43/10 56/44/10 53/41/10
f 57/45/11 58/46/11 59/47/11
f 60/48/11 61/49/11 62/50/11
f 63/51/12 64/52/12 65/53/12
f 66/54/12 67/55/12 68/56/12
f 69/57/13 70/58/13 71/59/13
f 72/60/13 73/61/13 74/62/13
f 75/63/14 76/64/14 77/65/14
f 78/66/14 79/67/14 80/68/14
f 81/69/11 82/70/11 83/71/11
f 83/71/11 84/72/11 81/69/11
f 85/73/15 86/74/15 87/75/15
f 87/75/15 88/76/15 85/73/15
f 89/77/13 90/78/13 91/79/13
f 92/80/13 93/81/13 94/82/13
f 95/83/14 96/84/14 97/85/14
f 98/86/14 99/87/14 100/88/14
f 101/89/16 102/90/16 103/91/16
f 104/92/16 105/93/16 106/94/16
f 107/95/17 108/96/17 109/97/17
f 109/97/17 110/98/17 107/95/17
f 111/99/18 112/100/18 113/101/18
f 113/101/18 114/102/18 111/99/18
f 115/103/19 116/104/19 117/105/19
f 118/106/19 119/107/19 120/108/19
f 121/109/11 122/110/11 123/111/11
f 124/112/11 125/113/11 126/114/11
f 127/115/14 128/116/14 129/117/14
f 130/118/14 131/119/14 132/120/14
f 133/121/20 134/122/20 135/123/20
f 136/124/20 137/125/20 138/126/20
f 139/127/13 140/128/13 141/129/13
f 142/130/13 143/131/13 144/132/13
s 1
f 21/133/15 22/134/15 23/135/15
f 23/135/15 24/136/15 21/133/15
f 25/137/21 26/138/21 27/139/21
f 27/139/21 28/140/21 25/137/21
f 29/141/22 30/142/22 31/143/22
f 31/143/22 32/144/22 29/141/22
f 145/145/15 146/146/15 147/147/15
f 147/147/15 148/148/15 145/145/15
f 149/149/21 150/150/21 151/151/21
f 151/151/21 152/152/21 149/149/21
f 153/153/22 154/154/22 155/155/22
f 155/155/22 156/156/22 153/153/22
o nifid_1-matrix_Tri_Ex_nord_door_01_0-lib
v -1.180993 2.104846 -0.352180
v -1.180993 -2.891528 -0.352181
v 1.726983 -2.891528 -0.352181
v 1.726983 2.104846 -0.352181
vt 0.243031 1.999000
vt 0.243031 0.000999
vt 1.771500 0.000999
vt 1.771500 1.999000
vn 0.0000 -0.0000 1.0000
usemtl Material_Material_#25
s off
f 157/157/23 158/158/23 159/159/23
f 159/159/23 160/160/23 157/157/23
