# Blender v2.79 (sub 0) OBJ File: ''
# www.blender.org
mtllib flora_bc_lilypad_01.mtl
o nifid_9-matrix_Tri_Flora_BC_Lilypad_01_0-lib
v 0.070185 0.074717 0.075997
v -0.075067 0.074717 0.031589
v -0.016811 -1.532159 -0.084368
v -0.073060 -1.563406 -0.052790
v -0.075067 0.074717 0.031589
v 0.036017 0.074717 -0.071999
v -0.073060 -1.500913 -0.115946
v 0.036017 0.074717 -0.071999
v 0.070185 0.074717 0.075997
v -0.073060 -1.500913 -0.115946
v -0.421256 -5.645752 -0.496823
v -0.016811 -1.532159 -0.084368
v -0.073060 -1.563406 -0.052790
v -0.073060 -1.500913 -0.115946
v -0.421256 -5.645752 -0.496823
v -0.421256 -5.645752 -0.496823
v -0.073060 -1.500913 -0.115946
vt 0.660000 3.000000
vt 0.330000 3.000000
vt 0.660000 0.000000
vt 0.330000 0.000000
vt 0.330000 3.000000
vt 0.000000 3.000000
vt 0.000000 0.000000
vt 1.000000 3.000000
vt 0.660000 3.000000
vt 1.000000 0.000000
vt 0.330000 0.000000
vt 0.660000 4.000000
vt 0.330000 4.000000
vt 0.000000 4.000000
vt 0.000000 0.000000
vt 0.660000 0.000000
vt 1.000000 4.000000
vn -0.2914 -0.0793 0.9533
vn -0.2734 -0.0791 0.9586
vn 0.9085 -0.0130 0.4177
vn -0.2578 0.0056 0.9662
vn -0.6815 0.0368 -0.7309
vn -0.6959 0.0379 -0.7171
vn -0.9955 0.0670 0.0663
vn 0.9725 -0.0610 -0.2245
vn 0.9678 -0.0582 -0.2447
vn 0.5429 0.0527 -0.8381
vn 0.5415 -0.1364 0.8296
vn 0.9038 -0.0462 -0.4254
vn -0.5161 -0.0490 0.8551
vn -0.9942 0.0765 0.0757
vn 0.5047 0.0368 -0.8625
usemtl Material_Material_#7
s 1
f 1/1/1 2/2/2 3/3/3
f 4/4/4 3/3/3 2/2/2
f 5/5/5 6/6/6 4/4/4
f 7/7/7 4/4/4 6/6/6
f 8/8/8 9/9/9 10/10/10
f 3/3/3 10/10/10 9/9/9
f 11/11/11 12/12/12 13/13/13
f 14/14/14 15/15/14 13/13/13
f 12/12/12 16/16/15 17/17/15
o nifid_3-matrix_Tri_Pad_0-lib
v -0.635000 0.076199 0.635000
v 0.635000 0.076199 0.635000
v 0.635000 0.076199 -0.635000
v -0.635000 0.076199 -0.635000
v 0.635000 0.076199 -0.635000
v 0.635000 0.076199 0.635000
v -0.635000 0.076199 0.635000
v -0.635000 0.076199 -0.635000
vt 0.000500 0.000500
vt 0.999500 0.000500
vt 0.999500 0.999500
vt 0.000500 0.999500
vt 0.999500 0.999500
vt 0.999500 0.000500
vt 0.000500 0.000500
vt 0.000500 0.999500
vn 0.0000 1.0000 0.0000
vn 0.0000 -1.0000 0.0000
usemtl Material_Material_#8
s off
f 18/18/16 19/19/16 20/20/16
f 20/20/16 21/21/16 18/18/16
f 22/22/17 23/23/17 24/24/17
f 24/24/17 25/25/17 22/22/17
