# Blender v2.79 (sub 0) OBJ File: ''
# www.blender.org
mtllib furn_com_lantern_hook.mtl
o nifid_2-matrix_Tri_Furn_Com_Lantern_Hook_0-lib
v 0.060405 -0.450384 -0.296794
v 0.060405 0.450384 -0.296794
v 0.045762 0.390126 -0.239192
v 0.045762 -0.390733 -0.239192
v -0.060405 -0.450384 -0.296794
v -0.045762 -0.390733 -0.239192
v -0.045762 0.390126 -0.239192
v -0.060405 0.450384 -0.296794
v 0.045762 -0.390733 -0.239192
v 0.045762 0.390126 -0.239192
v -0.045762 0.390126 -0.239192
v -0.045762 -0.390733 -0.239192
v -0.060405 0.450384 -0.296794
v -0.045762 0.390126 -0.239192
v -0.011981 -0.246655 -0.227525
v -0.011844 -0.332493 -0.246455
v 0.011004 -0.332493 -0.246455
v 0.011141 -0.246655 -0.227525
v -0.011981 -0.246655 -0.227525
v 0.011141 -0.246655 -0.227525
v 0.016227 -0.008859 -0.214705
v -0.017067 -0.008859 -0.214705
v -0.017067 -0.008859 -0.214705
v 0.016227 -0.008859 -0.214705
v 0.013258 0.078237 -0.176705
v -0.014098 0.078237 -0.176705
v -0.014098 0.078237 -0.176705
v 0.013258 0.078237 -0.176705
v 0.009079 0.134025 -0.109713
v -0.009919 0.134025 -0.109714
v -0.009919 0.134025 -0.109714
v 0.009079 0.134025 -0.109713
v 0.009079 0.157199 -0.020231
v -0.009919 0.157199 -0.020231
v 0.011141 -0.246655 -0.227525
v 0.011004 -0.332493 -0.246455
v 0.031330 0.000825 -0.246455
v 0.016227 -0.008859 -0.214705
v 0.016227 -0.008859 -0.214705
v 0.031330 0.000825 -0.246455
v 0.025666 0.099234 -0.202067
v 0.013258 0.078237 -0.176705
v 0.013258 0.078237 -0.176705
v 0.025666 0.099234 -0.202067
v 0.017696 0.160371 -0.131651
v 0.009079 0.134025 -0.109713
v 0.009079 0.134025 -0.109713
v 0.017696 0.160371 -0.131651
v 0.017696 0.180410 -0.020066
v 0.009079 0.157199 -0.020231
v 0.031330 0.000825 -0.246455
v -0.032170 0.000825 -0.246455
v -0.026507 0.099234 -0.202067
v 0.025666 0.099234 -0.202067
v 0.025666 0.099234 -0.202067
v -0.026507 0.099234 -0.202067
v -0.018536 0.160371 -0.131651
v 0.017696 0.160371 -0.131651
v 0.017696 0.160371 -0.131651
v -0.018536 0.160371 -0.131651
v -0.018536 0.180410 -0.020065
v 0.017696 0.180410 -0.020066
v -0.011844 -0.332493 -0.246455
v -0.011981 -0.246655 -0.227525
v -0.017067 -0.008859 -0.214705
v -0.032170 0.000825 -0.246455
v -0.032170 0.000825 -0.246455
v -0.017067 -0.008859 -0.214705
v -0.014098 0.078237 -0.176705
v -0.026507 0.099234 -0.202067
v -0.026507 0.099234 -0.202067
v -0.014098 0.078237 -0.176705
v -0.009919 0.134025 -0.109714
v -0.018536 0.160371 -0.131651
v -0.018536 0.160371 -0.131651
v -0.009919 0.134025 -0.109714
v -0.009919 0.157199 -0.020231
v -0.018536 0.180410 -0.020065
v 0.016227 0.304615 -0.214705
v 0.017317 0.362304 -0.246455
v -0.018157 0.362304 -0.246455
v -0.017067 0.304615 -0.214705
v 0.016227 0.304615 -0.214705
v -0.017067 0.304615 -0.214705
v -0.017067 0.268646 -0.214705
v 0.016227 0.268646 -0.214705
v 0.016227 0.268646 -0.214705
v -0.017067 0.268646 -0.214705
v -0.014098 0.239933 -0.202861
v 0.013258 0.239933 -0.202861
v -0.014098 0.217902 -0.171334
v 0.013258 0.217902 -0.171334
v -0.016139 0.192567 0.169873
v 0.015299 0.192567 0.169873
v 0.015299 0.192567 0.169873
v -0.016139 0.192567 0.169873
v -0.008014 0.151649 0.223525
v 0.007174 0.151649 0.223525
v -0.008014 0.158268 0.264758
v 0.007174 0.158268 0.264758
v -0.017067 0.304615 -0.214705
v -0.018157 0.362304 -0.246455
v -0.032170 0.248932 -0.246455
v -0.017067 0.268646 -0.214705
v -0.026507 0.213618 -0.233917
v -0.014098 0.239933 -0.202861
v -0.026507 0.176535 -0.182599
v -0.014098 0.217902 -0.171334
v -0.016139 0.175889 0.164593
v -0.016139 0.192567 0.169873
v -0.016139 0.192567 0.169873
v -0.016139 0.175889 0.164593
v -0.008014 0.131444 0.223452
v -0.008014 0.151649 0.223525
v -0.008014 0.147484 0.279708
v -0.008014 0.158268 0.264758
v -0.032170 0.248932 -0.246455
v 0.031330 0.248932 -0.246455
v 0.025666 0.213618 -0.233917
v -0.026507 0.213618 -0.233917
v -0.026507 0.213618 -0.233917
v 0.025666 0.213618 -0.233917
v 0.025666 0.176535 -0.182599
v -0.026507 0.176535 -0.182599
v 0.015299 0.175889 0.164594
v -0.016139 0.175889 0.164593
v -0.016139 0.175889 0.164593
v 0.015299 0.175889 0.164594
v 0.007174 0.131444 0.223452
v -0.008014 0.131444 0.223452
v 0.007174 0.147484 0.279708
v -0.008014 0.147484 0.279708
v 0.017317 0.362304 -0.246455
v 0.016227 0.304615 -0.214705
v 0.016227 0.268646 -0.214705
v 0.031330 0.248932 -0.246455
v 0.013258 0.239933 -0.202861
v 0.025666 0.213618 -0.233917
v 0.013258 0.217902 -0.171334
v 0.025666 0.176535 -0.182599
v 0.015299 0.192567 0.169873
v 0.015299 0.175889 0.164594
v 0.015299 0.175889 0.164594
v 0.015299 0.192567 0.169873
v 0.007174 0.151649 0.223525
v 0.007174 0.131444 0.223452
v 0.007174 0.131444 0.223452
v 0.007174 0.151649 0.223525
v 0.007174 0.158268 0.264758
v 0.007174 0.147484 0.279708
v -0.009214 0.087050 0.054796
v -0.009918 0.090332 0.039367
v 0.008374 0.087050 0.054796
v 0.009079 0.090331 0.039367
v -0.009919 0.157199 -0.020231
v 0.009079 0.157199 -0.020231
v 0.009079 0.140512 0.030364
v -0.009918 0.140512 0.030364
v 0.009079 0.157199 -0.020231
v 0.017696 0.180410 -0.020066
v 0.017696 0.163394 0.041556
v 0.009079 0.140512 0.030364
v 0.017696 0.180410 -0.020066
v -0.018536 0.180410 -0.020065
v -0.018536 0.163394 0.041556
v 0.017696 0.163394 0.041556
v -0.018536 0.180410 -0.020065
v -0.009919 0.157199 -0.020231
v -0.009918 0.140512 0.030364
v -0.018536 0.163394 0.041556
v -0.018536 0.163394 0.041556
v -0.009918 0.140512 0.030364
v -0.009918 0.116785 0.045942
v -0.009214 0.129572 0.068112
v 0.017696 0.163394 0.041556
v -0.018536 0.163394 0.041556
v -0.009214 0.129572 0.068112
v 0.008374 0.129573 0.068112
v 0.009079 0.140512 0.030364
v 0.017696 0.163394 0.041556
v 0.008374 0.129573 0.068112
v 0.009079 0.116785 0.045942
v -0.009918 0.140512 0.030364
v 0.009079 0.140512 0.030364
v 0.009079 0.116785 0.045942
v -0.009918 0.116785 0.045942
v -0.009214 0.129572 0.068112
v -0.009918 0.116785 0.045942
v -0.009918 0.090332 0.039367
v 0.008374 0.129573 0.068112
v -0.009214 0.129572 0.068112
v -0.009214 0.087050 0.054796
v 0.008374 0.087050 0.054796
v 0.009079 0.116785 0.045942
v 0.008374 0.129573 0.068112
v 0.009079 0.090331 0.039367
v -0.009918 0.116785 0.045942
v 0.009079 0.116785 0.045942
v 0.009079 0.090331 0.039367
v -0.009918 0.090332 0.039367
v 0.007174 0.158268 0.264758
v -0.008014 0.158268 0.264758
v -0.008014 0.178434 0.279968
v 0.007174 0.178434 0.279968
v -0.008014 0.171407 0.296794
v -0.008014 0.178434 0.279968
v 0.007174 0.171406 0.296794
v -0.008014 0.171407 0.296794
v 0.007174 0.147484 0.279708
v 0.007174 0.158268 0.264758
v 0.007174 0.178434 0.279968
v 0.007174 0.171406 0.296794
v 0.007174 0.171406 0.296794
v 0.007174 0.178434 0.279968
v 0.007174 0.199583 0.276172
v 0.007174 0.211950 0.290365
v -0.008014 0.171407 0.296794
v 0.007174 0.171406 0.296794
v 0.007174 0.211950 0.290365
v -0.008014 0.211950 0.290365
v -0.008014 0.178434 0.279968
v -0.008014 0.171407 0.296794
v -0.008014 0.211950 0.290365
v -0.008014 0.199583 0.276172
v -0.008014 0.199583 0.276172
v 0.007174 0.199583 0.276172
v 0.007174 0.211950 0.290365
v 0.007174 0.199583 0.276172
v -0.000420 0.218640 0.262402
v -0.008014 0.211950 0.290365
v 0.007174 0.211950 0.290365
v -0.000420 0.218640 0.262402
v -0.000420 0.218640 0.262402
v -0.000420 0.218640 0.262402
vt 0.368530 1.008790
vt 1.731080 1.008790
vt 1.733720 -0.048909
vt 0.365866 -0.048909
vt 0.228781 1.008790
vt 0.231445 -0.048909
vt -1.123430 -0.048908
vt -1.120800 1.008790
vt 1.168860 0.066464
vt 0.003439 0.066464
vt 0.003962 0.969075
vt 1.169390 0.969075
vt 1.883800 1.008790
vt 1.881170 -0.048908
vt 0.426131 0.738909
vt 0.426131 0.164768
vt 0.583722 0.164768
vt 0.583722 0.738909
vt 0.344289 0.876974
vt 0.344289 0.302833
vt 0.787029 0.302833
vt 0.787029 0.876974
vt 0.788683 0.876974
vt 0.788683 0.302833
vt 0.897548 0.302833
vt 0.897548 0.876974
vt 0.895282 0.876974
vt 0.895282 0.302833
vt 1.004150 0.302833
vt 1.004150 0.876974
vt 1.004200 0.876974
vt 1.004200 0.302833
vt 1.113070 0.302833
vt 1.113070 0.876974
vt 0.344289 0.876974
vt 0.344289 0.302833
vt 0.787029 0.302833
vt 0.787029 0.876974
vt 0.788683 0.876974
vt 0.788683 0.302833
vt 0.897548 0.302833
vt 0.897548 0.876974
vt 0.895282 0.876974
vt 0.895282 0.302833
vt 1.004150 0.302833
vt 1.004150 0.876974
vt 1.004200 0.876974
vt 1.004200 0.302833
vt 1.113070 0.302833
vt 1.113070 0.876974
vt 0.788683 0.876974
vt 0.788683 0.302833
vt 0.897548 0.302833
vt 0.897548 0.876974
vt 0.895282 0.876974
vt 0.895282 0.302833
vt 1.004150 0.302833
vt 1.004150 0.876974
vt 1.004200 0.876974
vt 1.004200 0.302833
vt 1.113070 0.302833
vt 1.113070 0.876974
vt 0.344289 0.876974
vt 0.344289 0.302833
vt 0.787029 0.302833
vt 0.787029 0.876974
vt 0.788683 0.876974
vt 0.788683 0.302833
vt 0.897548 0.302833
vt 0.897548 0.876974
vt 0.895282 0.876974
vt 0.895282 0.302833
vt 1.004150 0.302833
vt 1.004150 0.876974
vt 1.004200 0.876974
vt 1.004200 0.302833
vt 1.113070 0.302833
vt 1.113070 0.876974
vt 0.982561 0.271619
vt 1.206170 0.240924
vt 1.206170 0.764079
vt 0.982561 0.733384
vt 0.980732 0.286467
vt 0.980732 0.766609
vt 0.887365 0.766609
vt 0.887365 0.286467
vt 0.885427 0.282678
vt 0.885427 0.744443
vt 0.817582 0.660818
vt 0.817582 0.366303
vt 0.757751 0.660818
vt 0.757751 0.366303
vt 0.110239 0.718308
vt 0.110239 0.308816
vt 0.182162 1.340260
vt 0.182162 1.737190
vt 0.080346 1.634600
vt 0.080346 1.442840
vt 0.002097 1.634600
vt 0.002097 1.442840
vt 0.058886 0.922604
vt 0.000500 0.926767
vt 0.000500 0.527091
vt 0.058886 0.766958
vt 0.023556 0.374276
vt 0.080667 0.642710
vt 0.117927 0.213805
vt 0.138644 0.547375
vt 0.756392 0.211010
vt 0.766100 0.437741
vt 0.766100 0.873539
vt 0.756392 0.649803
vt 0.864628 0.053590
vt 0.864763 0.324643
vt 0.968080 0.268763
vt 0.940588 0.413431
vt 0.999500 0.508907
vt 0.000500 0.508907
vt 0.089600 0.356093
vt 0.910401 0.356093
vt -0.070866 0.806452
vt -0.070866 0.258065
vt 0.055118 0.258065
vt 0.055118 0.806452
vt 0.921260 0.354839
vt 0.921260 0.709677
vt 0.648890 0.223865
vt 0.648889 0.532991
vt 0.313356 0.453096
vt 0.313356 0.303760
vt -0.007343 0.453096
vt -0.007343 0.303760
vt 0.999500 0.926767
vt 0.941114 0.922604
vt 0.941114 0.766958
vt 0.999501 0.527091
vt 0.919333 0.642710
vt 0.976444 0.374276
vt 0.861356 0.547375
vt 0.882073 0.213805
vt 0.233900 0.437741
vt 0.243608 0.211010
vt 0.512674 1.543010
vt 0.512674 1.353630
vt 0.278711 1.374160
vt 0.278711 1.575890
vt 0.135372 0.053590
vt 0.135237 0.324643
vt 0.059412 0.413431
vt 0.031920 0.268763
vt 1.440690 0.876974
vt 1.331820 0.876974
vt 1.440690 0.302833
vt 1.331820 0.302833
vt 1.115390 0.876974
vt 1.115390 0.302833
vt 1.224250 0.302833
vt 1.224250 0.876974
vt 1.115390 0.876974
vt 1.115390 0.302833
vt 1.224250 0.302833
vt 1.224250 0.876974
vt 1.115390 0.876974
vt 1.115390 0.302833
vt 1.224250 0.302833
vt 1.224250 0.876974
vt 1.115390 0.876974
vt 1.115390 0.302833
vt 1.224250 0.302833
vt 1.224250 0.876974
vt 1.222910 0.876974
vt 1.222910 0.302833
vt 1.331780 0.302833
vt 1.331780 0.876974
vt 1.222910 0.876974
vt 1.222910 0.302833
vt 1.331780 0.302833
vt 1.331780 0.876974
vt 1.222910 0.876974
vt 1.222910 0.302833
vt 1.331780 0.302833
vt 1.331780 0.876974
vt 1.222910 0.876974
vt 1.222910 0.302833
vt 1.331780 0.302833
vt 1.331780 0.876974
vt 1.331820 0.876974
vt 1.331820 0.302833
vt 1.440690 0.302833
vt 1.331820 0.876974
vt 1.331820 0.302833
vt 1.440690 0.302833
vt 1.440690 0.876974
vt 1.331820 0.876974
vt 1.331820 0.302833
vt 1.440690 0.876974
vt 1.331820 0.876974
vt 1.331820 0.302833
vt 1.440690 0.302833
vt 1.440690 0.876974
vt -0.209982 1.442840
vt -0.209982 1.634600
vt -0.094361 1.634600
vt -0.094362 1.442840
vt 0.999501 0.589679
vt 0.968558 0.683948
vt -0.104747 0.453096
vt -0.104747 0.303759
vt 0.031920 -0.515239
vt 0.059412 -0.370571
vt 0.031442 -0.100054
vt 0.000499 -0.194324
vt 0.000499 0.848619
vt 0.031442 0.754349
vt 0.038423 0.595258
vt 0.012322 0.597974
vt 0.798832 0.444257
vt 0.798831 0.294921
vt 0.975214 0.294921
vt 0.975214 0.444257
vt 0.968558 0.395007
vt 0.999501 0.300738
vt 0.987678 0.844611
vt 0.961577 0.678720
vt -0.035194 1.634600
vt -0.035194 1.442850
vt 0.012322 0.349550
vt 0.038423 0.183659
vt 0.063745 0.439290
vt -0.041913 0.448678
vt -0.041913 0.299342
vt 0.030817 0.378430
vt 0.936255 0.934351
vt 0.026467 1.538720
vn 0.4421 -0.5645 0.6970
vn 0.4397 0.5625 0.7002
vn 0.7208 0.3794 0.5801
vn 0.7203 -0.3822 0.5789
vn -0.4421 -0.5645 0.6970
vn -0.7203 -0.3822 0.5789
vn -0.9691 0.0000 0.2464
vn 0.0000 0.0000 1.0000
vn 0.0000 0.6910 0.7228
vn 0.0000 -0.2153 0.9765
vn 0.0000 -0.0538 0.9985
vn 0.0000 -0.3999 0.9165
vn 0.0000 -0.7684 0.6399
vn 0.0000 -0.9680 0.2507
vn 0.9618 -0.0580 0.2674
vn 0.9639 -0.0588 0.2596
vn 0.9114 -0.0430 0.4092
vn 0.9071 -0.0420 0.4187
vn 0.9136 -0.1250 0.3868
vn 0.9102 -0.1256 0.3946
vn 0.9235 -0.1231 0.3633
vn 0.9277 -0.1222 0.3527
vn 0.9438 -0.1967 0.2655
vn 0.9355 -0.2074 0.2860
vn 0.9619 -0.1696 0.2144
vn 0.9688 -0.1574 0.1915
vn 0.9578 -0.2823 0.0540
vn 0.9607 -0.2733 0.0491
vn 0.9402 -0.3310 0.0809
vn 0.9335 -0.3472 0.0899
vn 0.0000 0.4111 -0.9116
vn 0.0000 0.7551 -0.6556
vn 0.0000 0.9843 -0.1767
vn -0.9643 -0.0412 0.2614
vn -0.9926 -0.0276 0.1180
vn -0.9112 -0.0548 0.4082
vn -0.9081 -0.0554 0.4151
vn -0.9138 -0.1325 0.3839
vn -0.9100 -0.1393 0.3904
vn -0.9228 -0.1156 0.3674
vn -0.9257 -0.1099 0.3619
vn -0.9448 -0.2122 0.2496
vn -0.9355 -0.2405 0.2586
vn -0.9604 -0.1556 0.2311
vn -0.9661 -0.1305 0.2227
vn -0.9584 -0.2776 0.0662
vn -0.9635 -0.2592 0.0671
vn -0.9405 -0.3337 0.0632
vn -0.9355 -0.3477 0.0624
vn 0.0000 0.4822 0.8761
vn 0.0000 0.3813 0.9244
vn 0.0000 0.6190 0.7854
vn 0.0000 0.9422 0.3349
vn 0.0000 0.9973 0.0740
vn 0.0000 0.7951 0.6064
vn 0.0000 0.9659 0.2589
vn 0.0000 0.9873 -0.1585
vn -0.9529 0.0941 0.2883
vn -0.9612 0.1188 0.2488
vn -0.9185 0.0267 0.3945
vn -0.9121 0.0105 0.4097
vn -0.9491 0.1365 0.2837
vn -0.9553 0.1430 0.2587
vn -0.9599 0.2622 0.0986
vn -0.9612 0.2566 0.1013
vn -0.9998 0.0208 -0.0034
vn -1.0000 0.0018 -0.0058
vn -0.9927 -0.0294 0.1169
vn -0.9932 -0.0350 0.1107
vn -0.9982 -0.0034 0.0593
vn -0.9965 -0.0003 0.0840
vn -1.0000 0.0000 0.0000
vn 0.0000 -0.3346 -0.9424
vn 0.0000 -0.8105 -0.5857
vn 0.0000 -0.9502 -0.3116
vn 0.0000 -1.0000 -0.0018
vn 0.0000 -0.7980 -0.6026
vn 0.0000 -0.9798 -0.2000
vn 0.0000 -0.8172 0.5763
vn 0.9623 0.0771 0.2606
vn 0.9994 0.0000 0.0343
vn 0.9328 0.0851 0.3501
vn 0.9233 0.0550 0.3800
vn 0.9486 0.1393 0.2842
vn 0.9531 0.1195 0.2779
vn 0.9599 0.2628 0.0975
vn 0.9618 0.2578 0.0921
vn 0.9994 0.0178 0.0286
vn 0.9995 -0.0094 0.0298
vn 0.9918 -0.0332 0.1231
vn 0.9919 -0.0383 0.1210
vn 0.9909 -0.0049 0.1346
vn 0.9906 -0.0005 0.1364
vn 1.0000 0.0000 0.0000
vn -0.7154 -0.6894 -0.1139
vn 0.0000 -0.9781 -0.2080
vn 0.7161 -0.6884 -0.1148
vn 0.0000 -0.9497 -0.3132
vn 0.9366 -0.3367 -0.0969
vn 0.9334 -0.3458 -0.0955
vn 0.9428 -0.3179 -0.0996
vn 0.9463 -0.3069 -0.1012
vn 0.0000 0.9639 0.2662
vn -0.9362 -0.3352 -0.1052
vn -0.9316 -0.3450 -0.1138
vn -0.9426 -0.3207 -0.0926
vn -0.9456 -0.3137 -0.0866
vn -0.9779 -0.1891 -0.0886
vn -0.9306 -0.2008 -0.3059
vn -0.9832 -0.1823 -0.0062
vn -0.9773 -0.1686 0.1283
vn 0.0000 0.6175 0.7865
vn 0.9767 -0.2105 -0.0428
vn 0.9447 -0.3192 -0.0749
vn 0.9905 -0.1360 -0.0209
vn 0.9996 0.0151 0.0230
vn 0.0000 -0.5488 -0.8359
vn -0.9991 -0.0110 0.0396
vn -0.9993 -0.0092 0.0370
vn -0.9991 -0.0123 0.0413
vn 0.0000 -0.2988 0.9543
vn 0.9991 -0.0118 0.0398
vn 0.9991 -0.0121 0.0387
vn 0.9990 -0.0107 0.0433
vn 0.0000 0.2412 -0.9705
vn 0.0000 0.6022 -0.7984
vn 0.0000 0.2322 -0.9727
vn 0.0000 -0.5812 0.8137
vn 0.0000 0.1566 0.9876
vn -0.9882 0.1156 -0.1007
vn -0.9916 0.0972 -0.0847
vn 0.0000 -0.3677 -0.9299
vn 0.9512 0.2326 -0.2026
vn 0.0000 0.9725 0.2326
vn -0.9512 0.2326 -0.2026
vn 0.0000 -0.5857 -0.8105
usemtl Material_Material_#1
s 1
f 1/1/1 2/2/2 3/3/3
f 3/3/3 4/4/4 1/1/1
f 5/5/5 6/6/6 7/7/7
f 7/7/7 8/8/7 5/5/5
f 1/1/1 4/4/4 6/6/6
f 6/6/6 5/5/5 1/1/1
f 9/9/8 10/10/8 11/11/8
f 11/11/8 12/12/8 9/9/8
f 3/3/3 2/2/2 13/13/9
f 13/13/9 14/14/9 3/3/3
f 15/15/10 16/16/10 17/17/10
f 17/17/10 18/18/10 15/15/10
f 19/19/11 20/20/11 21/21/11
f 21/21/11 22/22/11 19/19/11
f 23/23/12 24/24/12 25/25/12
f 25/25/12 26/26/12 23/23/12
f 27/27/13 28/28/13 29/29/13
f 29/29/13 30/30/13 27/27/13
f 31/31/14 32/32/14 33/33/14
f 33/33/14 34/34/14 31/31/14
f 35/35/15 36/36/16 37/37/17
f 37/37/17 38/38/18 35/35/15
f 39/39/19 40/40/20 41/41/21
f 41/41/21 42/42/22 39/39/19
f 43/43/23 44/44/24 45/45/25
f 45/45/25 46/46/26 43/43/23
f 47/47/27 48/48/28 49/49/29
f 49/49/29 50/50/30 47/47/27
f 51/51/31 52/52/31 53/53/31
f 53/53/31 54/54/31 51/51/31
f 55/55/32 56/56/32 57/57/32
f 57/57/32 58/58/32 55/55/32
f 59/59/33 60/60/33 61/61/33
f 61/61/33 62/62/33 59/59/33
f 63/63/34 64/64/35 65/65/36
f 65/65/36 66/66/37 63/63/34
f 67/67/38 68/68/39 69/69/40
f 69/69/40 70/70/41 67/67/38
f 71/71/42 72/72/43 73/73/44
f 73/73/44 74/74/45 71/71/42
f 75/75/46 76/76/47 77/77/48
f 77/77/48 78/78/49 75/75/46
f 79/79/50 80/80/50 81/81/50
f 81/81/50 82/82/50 79/79/50
f 83/83/8 84/84/8 85/85/8
f 85/85/8 86/86/8 83/83/8
f 87/87/51 88/88/51 89/89/52
f 89/89/52 90/90/52 87/87/51
f 90/90/52 89/89/52 91/91/53
f 91/91/53 92/92/53 90/90/52
f 92/92/53 91/91/53 93/93/54
f 93/93/54 94/94/54 92/92/53
f 95/95/55 96/96/55 97/97/56
f 97/97/56 98/98/56 95/95/55
f 98/98/56 97/97/56 99/99/57
f 99/99/57 100/100/57 98/98/56
f 101/101/58 102/102/59 103/103/60
f 103/103/60 104/104/61 101/101/58
f 104/104/61 103/103/60 105/105/62
f 105/105/62 106/106/63 104/104/61
f 106/106/63 105/105/62 107/107/64
f 107/107/64 108/108/65 106/106/63
f 108/108/65 107/107/64 109/109/66
f 109/109/66 110/110/67 108/108/65
f 111/111/68 112/112/69 113/113/70
f 113/113/70 114/114/71 111/111/68
f 114/114/71 113/113/70 115/115/72
f 115/115/72 116/116/72 114/114/71
f 117/117/73 118/118/73 119/119/73
f 119/119/73 120/120/73 117/117/73
f 121/121/74 122/122/74 123/123/75
f 123/123/75 124/124/75 121/121/74
f 124/124/75 123/123/75 125/125/76
f 125/125/76 126/126/76 124/124/75
f 127/127/77 128/128/77 129/129/78
f 129/129/78 130/130/78 127/127/77
f 130/130/78 129/129/78 131/131/79
f 131/131/79 132/132/79 130/130/78
f 133/133/80 134/134/81 135/135/82
f 135/135/82 136/136/83 133/133/80
f 136/136/83 135/135/82 137/137/84
f 137/137/84 138/138/85 136/136/83
f 138/138/85 137/137/84 139/139/86
f 139/139/86 140/140/87 138/138/85
f 140/140/87 139/139/86 141/141/88
f 141/141/88 142/142/89 140/140/87
f 143/143/90 144/144/91 145/145/92
f 145/145/92 146/146/93 143/143/90
f 147/147/94 148/148/94 149/149/94
f 149/149/94 150/150/94 147/147/94
f 151/151/95 152/152/96 153/153/97
f 154/154/96 153/153/97 152/152/96
f 155/155/98 156/156/98 157/157/98
f 157/157/98 158/158/98 155/155/98
f 159/159/99 160/160/100 161/161/101
f 161/161/101 162/162/102 159/159/99
f 163/163/103 164/164/103 165/165/103
f 165/165/103 166/166/103 163/163/103
f 167/167/104 168/168/105 169/169/106
f 169/169/106 170/170/107 167/167/104
f 171/171/108 172/172/109 173/173/110
f 173/173/110 174/174/111 171/171/108
f 175/175/112 176/176/112 177/177/112
f 177/177/112 178/178/112 175/175/112
f 179/179/113 180/180/114 181/181/115
f 181/181/115 182/182/116 179/179/113
f 183/183/117 184/184/117 185/185/117
f 185/185/117 186/186/117 183/183/117
f 187/187/118 188/188/119 189/189/120
f 189/189/120 151/151/95 187/187/118
f 190/190/121 191/191/121 192/192/121
f 192/192/121 193/193/121 190/190/121
f 194/194/122 195/195/123 153/153/97
f 153/153/97 196/196/124 194/194/122
f 197/197/125 198/198/125 199/199/125
f 199/199/125 200/200/125 197/197/125
f 201/201/126 202/202/126 203/203/127
f 203/203/127 204/204/127 201/201/126
f 116/116/72 115/115/72 205/205/72
f 205/205/72 206/206/72 116/116/72
f 132/132/79 131/131/79 207/207/128
f 207/207/128 208/208/128 132/132/79
f 209/209/94 210/210/94 211/211/94
f 211/211/94 212/212/94 209/209/94
f 213/213/94 214/214/94 215/215/94
f 215/215/94 216/216/94 213/213/94
f 217/217/129 218/218/129 219/219/129
f 219/219/129 220/220/129 217/217/129
f 221/221/72 222/222/72 223/223/130
f 223/223/130 224/224/131 221/221/72
f 204/204/127 203/203/127 225/225/132
f 225/225/132 226/226/132 204/204/127
f 227/227/133 228/228/133 229/229/133
f 230/230/134 231/231/134 232/232/134
f 224/224/131 223/223/130 233/233/135
f 226/226/132 225/225/132 234/234/136
