# Blender v2.79 (sub 0) OBJ File: ''
# www.blender.org
mtllib terrain_water.mtl
o nifid_7-matrix_-lib
v -26.009600 -1.549401 26.009600
v 26.009600 -1.549401 26.009600
v 26.009600 -1.549401 -26.009600
v -26.009600 -1.549401 -26.009600
vn 0.0000 1.0000 0.0000
usemtl None
s off
f 1//1 2//1 3//1
f 3//1 4//1 1//1
o nifid_1-matrix_Tri_Terrain_BC_scum_01-lib
v -26.009600 0.076199 26.009600
v 26.009600 0.076199 26.009600
v 26.009600 0.076199 -26.009600
v -26.009600 0.076199 -26.009600
v 26.009600 0.076199 -26.009600
v 26.009600 0.076199 26.009600
v -26.009600 0.076199 26.009600
v -26.009600 0.076199 -26.009600
vt 0.001998 0.001999
vt 3.998000 0.001998
vt 3.998000 3.998000
vt 0.001999 3.998000
vt 3.998000 3.998000
vt 3.998000 0.001998
vt 0.001998 0.001999
vt 0.001999 3.998000
vn 0.0000 1.0000 0.0000
vn 0.0000 -1.0000 0.0000
usemtl Material_Material_#11
s off
f 5/1/2 6/2/2 7/3/2
f 7/3/2 8/4/2 5/1/2
f 9/5/3 10/6/3 11/7/3
f 11/7/3 12/8/3 9/5/3
